<?xml version='1.0' encoding='UTF-8' standalone='no'?>
<!-- Created with Fritzing (http://www.fritzing.org/) -->
<svg xmlns="http://www.w3.org/2000/svg"  version="1.2" y="0in" height="0.6in" width="0.8in" x="0in" baseProfile="tiny" viewBox="0 0 57.6 43.2">
    <desc>
        <referenceFile>ADXL345-BreakoutBoard-v13_pcb.svg</referenceFile>
    </desc>
    <desc >Fritzing footprint generated by brd2svg</desc>
    <g  id="silkscreen" stroke-width="0" gorn="0.1">
        <path  fill="none" stroke="white" stroke-width="0.576" d="M0.288,42.912L57.312,42.912L57.312,0.288L0.288,0.288L0.288,42.912M2.808,7.2a4.392,4.392,0,1,1,8.784,0,4.392,4.392,0,1,1,-8.784,0zM46.008,7.2a4.392,4.392,0,1,1,8.784,0,4.392,4.392,0,1,1,-8.784,0z"/>
        <line  stroke="white" y1="24.12" stroke-linecap="round" stroke-width="0.864" y2="24.12" x1="43.2" x2="54"/>
        <line  stroke="white" y1="24.12" stroke-linecap="round" stroke-width="0.864" y2="12.96" x1="43.2" x2="43.2"/>
        <line  stroke="white" y1="12.96" stroke-linecap="round" stroke-width="0.864" y2="15.12" x1="43.2" x2="41.04"/>
        <line  stroke="white" y1="12.96" stroke-linecap="round" stroke-width="0.864" y2="15.12" x1="43.2" x2="45.36"/>
        <line  stroke="white" y1="21.96" stroke-linecap="round" stroke-width="0.864" y2="24.12" x1="51.84" x2="54"/>
        <line  stroke="white" y1="26.28" stroke-linecap="round" stroke-width="0.864" y2="24.12" x1="51.84" x2="54"/>
        <circle  cy="18.792" fill="none" r="2.52" stroke="white" stroke-width="0.864" cx="48.456"/>
        <circle  cy="18.792" fill="none" r="0.432" stroke="white" stroke-width="0.864" cx="48.456"/>
        <g  stroke-width="0">
            <title >element:JP1</title>
            <g  stroke-width="0">
                <title >package:1X08</title>
                <line  stroke="white" y1="36" stroke-linecap="round" stroke-width="0.576" y2="36" x1="45" x2="48.6"/>
                <line  stroke="white" y1="36" stroke-linecap="round" stroke-width="0.576" y2="37.8" x1="48.6" x2="50.4"/>
                <line  stroke="white" y1="41.4" stroke-linecap="round" stroke-width="0.576" y2="43.2" x1="50.4" x2="48.6"/>
                <line  stroke="white" y1="37.8" stroke-linecap="round" stroke-width="0.576" y2="36" x1="36" x2="37.8"/>
                <line  stroke="white" y1="36" stroke-linecap="round" stroke-width="0.576" y2="36" x1="37.8" x2="41.4"/>
                <line  stroke="white" y1="36" stroke-linecap="round" stroke-width="0.576" y2="37.8" x1="41.4" x2="43.2"/>
                <line  stroke="white" y1="41.4" stroke-linecap="round" stroke-width="0.576" y2="43.2" x1="43.2" x2="41.4"/>
                <line  stroke="white" y1="43.2" stroke-linecap="round" stroke-width="0.576" y2="43.2" x1="41.4" x2="37.8"/>
                <line  stroke="white" y1="43.2" stroke-linecap="round" stroke-width="0.576" y2="41.4" x1="37.8" x2="36"/>
                <line  stroke="white" y1="36" stroke-linecap="round" stroke-width="0.576" y2="37.8" x1="45" x2="43.2"/>
                <line  stroke="white" y1="41.4" stroke-linecap="round" stroke-width="0.576" y2="43.2" x1="43.2" x2="45"/>
                <line  stroke="white" y1="43.2" stroke-linecap="round" stroke-width="0.576" y2="43.2" x1="48.6" x2="45"/>
                <line  stroke="white" y1="36" stroke-linecap="round" stroke-width="0.576" y2="36" x1="23.4" x2="27"/>
                <line  stroke="white" y1="36" stroke-linecap="round" stroke-width="0.576" y2="37.8" x1="27" x2="28.8"/>
                <line  stroke="white" y1="41.4" stroke-linecap="round" stroke-width="0.576" y2="43.2" x1="28.8" x2="27"/>
                <line  stroke="white" y1="37.8" stroke-linecap="round" stroke-width="0.576" y2="36" x1="28.8" x2="30.6"/>
                <line  stroke="white" y1="36" stroke-linecap="round" stroke-width="0.576" y2="36" x1="30.6" x2="34.2"/>
                <line  stroke="white" y1="36" stroke-linecap="round" stroke-width="0.576" y2="37.8" x1="34.2" x2="36"/>
                <line  stroke="white" y1="41.4" stroke-linecap="round" stroke-width="0.576" y2="43.2" x1="36" x2="34.2"/>
                <line  stroke="white" y1="43.2" stroke-linecap="round" stroke-width="0.576" y2="43.2" x1="34.2" x2="30.6"/>
                <line  stroke="white" y1="43.2" stroke-linecap="round" stroke-width="0.576" y2="41.4" x1="30.6" x2="28.8"/>
                <line  stroke="white" y1="37.8" stroke-linecap="round" stroke-width="0.576" y2="36" x1="14.4" x2="16.2"/>
                <line  stroke="white" y1="36" stroke-linecap="round" stroke-width="0.576" y2="36" x1="16.2" x2="19.8"/>
                <line  stroke="white" y1="36" stroke-linecap="round" stroke-width="0.576" y2="37.8" x1="19.8" x2="21.6"/>
                <line  stroke="white" y1="41.4" stroke-linecap="round" stroke-width="0.576" y2="43.2" x1="21.6" x2="19.8"/>
                <line  stroke="white" y1="43.2" stroke-linecap="round" stroke-width="0.576" y2="43.2" x1="19.8" x2="16.2"/>
                <line  stroke="white" y1="43.2" stroke-linecap="round" stroke-width="0.576" y2="41.4" x1="16.2" x2="14.4"/>
                <line  stroke="white" y1="36" stroke-linecap="round" stroke-width="0.576" y2="37.8" x1="23.4" x2="21.6"/>
                <line  stroke="white" y1="41.4" stroke-linecap="round" stroke-width="0.576" y2="43.2" x1="21.6" x2="23.4"/>
                <line  stroke="white" y1="43.2" stroke-linecap="round" stroke-width="0.576" y2="43.2" x1="27" x2="23.4"/>
                <line  stroke="white" y1="36" stroke-linecap="round" stroke-width="0.576" y2="36" x1="1.8" x2="5.4"/>
                <line  stroke="white" y1="36" stroke-linecap="round" stroke-width="0.576" y2="37.8" x1="5.4" x2="7.2"/>
                <line  stroke="white" y1="41.4" stroke-linecap="round" stroke-width="0.576" y2="43.2" x1="7.2" x2="5.4"/>
                <line  stroke="white" y1="37.8" stroke-linecap="round" stroke-width="0.576" y2="36" x1="7.2" x2="9"/>
                <line  stroke="white" y1="36" stroke-linecap="round" stroke-width="0.576" y2="36" x1="9" x2="12.6"/>
                <line  stroke="white" y1="36" stroke-linecap="round" stroke-width="0.576" y2="37.8" x1="12.6" x2="14.4"/>
                <line  stroke="white" y1="41.4" stroke-linecap="round" stroke-width="0.576" y2="43.2" x1="14.4" x2="12.6"/>
                <line  stroke="white" y1="43.2" stroke-linecap="round" stroke-width="0.576" y2="43.2" x1="12.6" x2="9"/>
                <line  stroke="white" y1="43.2" stroke-linecap="round" stroke-width="0.576" y2="41.4" x1="9" x2="7.2"/>
                <line  stroke="white" y1="37.8" stroke-linecap="round" stroke-width="0.576" y2="41.4" x1="0" x2="0"/>
                <line  stroke="white" y1="36" stroke-linecap="round" stroke-width="0.576" y2="37.8" x1="1.8" x2="0"/>
                <line  stroke="white" y1="41.4" stroke-linecap="round" stroke-width="0.576" y2="43.2" x1="0" x2="1.8"/>
                <line  stroke="white" y1="43.2" stroke-linecap="round" stroke-width="0.576" y2="43.2" x1="5.4" x2="1.8"/>
                <line  stroke="white" y1="36" stroke-linecap="round" stroke-width="0.576" y2="36" x1="52.2" x2="55.8"/>
                <line  stroke="white" y1="36" stroke-linecap="round" stroke-width="0.576" y2="37.8" x1="55.8" x2="57.6"/>
                <line  stroke="white" y1="37.8" stroke-linecap="round" stroke-width="0.576" y2="41.4" x1="57.6" x2="57.6"/>
                <line  stroke="white" y1="41.4" stroke-linecap="round" stroke-width="0.576" y2="43.2" x1="57.6" x2="55.8"/>
                <line  stroke="white" y1="36" stroke-linecap="round" stroke-width="0.576" y2="37.8" x1="52.2" x2="50.4"/>
                <line  stroke="white" y1="41.4" stroke-linecap="round" stroke-width="0.576" y2="43.2" x1="50.4" x2="52.2"/>
                <line  stroke="white" y1="43.2" stroke-linecap="round" stroke-width="0.576" y2="43.2" x1="55.8" x2="52.2"/>
            </g>
        </g>
        <g  stroke-width="0">
            <title >element:JP2</title>
            <g  stroke-width="0">
                <title >package:STAND-OFF</title>
            </g>
        </g>
        <g  stroke-width="0">
            <title >element:JP3</title>
            <g  stroke-width="0">
                <title >package:STAND-OFF</title>
            </g>
        </g>
        <g  stroke-width="0">
            <title >element:U$2</title>
            <g  stroke-width="0">
                <title >package:SFE-NEW-WEBLOGO</title>
            </g>
        </g>
        <g  stroke-width="0">
            <title >element:U1</title>
            <g  stroke-width="0">
                <title >package:LGA14</title>
                <line  stroke="white" y1="13.748" stroke-linecap="round" stroke-width="0.576" y2="16.0158" x1="35.8866" x2="35.8866"/>
                <line  stroke="white" y1="19.9842" stroke-linecap="round" stroke-width="0.576" y2="22.252" x1="35.8866" x2="35.8866"/>
                <line  stroke="white" y1="22.252" stroke-linecap="round" stroke-width="0.576" y2="19.9842" x1="21.7134" x2="21.7134"/>
                <line  stroke="white" y1="16.0158" stroke-linecap="round" stroke-width="0.576" y2="13.748" x1="21.7134" x2="21.7134"/>
                <circle  cy="18" fill="none" r="0.283465" stroke="white" stroke-width="0.576" cx="31.6346"/>
            </g>
        </g>
    </g>
    <g  id="copper1" stroke-width="0" gorn="0.2">
        <g  id="copper0" stroke-width="0" gorn="0.2.0">
            <circle  cy="39.6" fill="none" connectorname="GND" r="2.052" stroke="#F7BD13" id="connector6pad" stroke-width="1.224" gorn="0.2.0.0" cx="3.6"/>
            <rect  fill="none" y="37.548" stroke="#F7BD13" height="4.104" stroke-width="1.224" width="4.104" x="1.548"/>
            <circle  cy="39.6" fill="none" connectorname="VCC" r="2.052" stroke="#F7BD13" id="connector7pad" stroke-width="1.224" gorn="0.2.0.2" cx="10.8"/>
            <circle  cy="39.6" fill="none" connectorname="CS" r="2.052" stroke="#F7BD13" id="connector8pad" stroke-width="1.224" gorn="0.2.0.3" cx="18"/>
            <circle  cy="39.6" fill="none" connectorname="INT1" r="2.052" stroke="#F7BD13" id="connector9pad" stroke-width="1.224" gorn="0.2.0.4" cx="25.2"/>
            <circle  cy="39.6" fill="none" connectorname="INT2" r="2.052" stroke="#F7BD13" id="connector10pad" stroke-width="1.224" gorn="0.2.0.5" cx="32.4"/>
            <circle  cy="39.6" fill="none" connectorname="SDO" r="2.052" stroke="#F7BD13" id="connector11pad" stroke-width="1.224" gorn="0.2.0.6" cx="39.6"/>
            <circle  cy="39.6" fill="none" connectorname="SDA" r="2.052" stroke="#F7BD13" id="connector12pad" stroke-width="1.224" gorn="0.2.0.7" cx="46.8"/>
            <circle  cy="39.6" fill="none" connectorname="SCL" r="2.052" stroke="#F7BD13" id="connector13pad" stroke-width="1.224" gorn="0.2.0.8" cx="54"/>
        </g>
    </g>
</svg>
