<?xml version='1.0' encoding='UTF-8' standalone='no'?>
<!-- Created with Fritzing (http://www.fritzing.org/) -->
<svg xmlns="http://www.w3.org/2000/svg" x="0in" width="0.8in" height="0.6in" y="0in" viewBox="0 0 57.6 43.2" baseProfile="tiny"  version="1.2">
    <desc >
        <referenceFile >ADXL345-BreakoutBoard-v13_pcb.svg</referenceFile>
    </desc>
    <desc >Fritzing footprint generated by brd2svg</desc>
    <g stroke-width="0" gorn="0.2"  id="silkscreen">
        <path stroke-width="0.576" fill="none" d="M0.288,42.912L57.312,42.912L57.312,0.288L0.288,0.288L0.288,42.912M2.808,7.2a4.392,4.392,0,1,1,8.784,0,4.392,4.392,0,1,1,-8.784,0zM46.008,7.2a4.392,4.392,0,1,1,8.784,0,4.392,4.392,0,1,1,-8.784,0z"  stroke="white"/>
        <line y1="24.12" stroke-width="0.864" stroke-linecap="round" y2="24.12" x1="43.2" x2="54"  stroke="white"/>
        <line y1="24.12" stroke-width="0.864" stroke-linecap="round" y2="12.96" x1="43.2" x2="43.2"  stroke="white"/>
        <line y1="12.96" stroke-width="0.864" stroke-linecap="round" y2="15.12" x1="43.2" x2="41.04"  stroke="white"/>
        <line y1="12.96" stroke-width="0.864" stroke-linecap="round" y2="15.12" x1="43.2" x2="45.36"  stroke="white"/>
        <line y1="21.96" stroke-width="0.864" stroke-linecap="round" y2="24.12" x1="51.84" x2="54"  stroke="white"/>
        <line y1="26.28" stroke-width="0.864" stroke-linecap="round" y2="24.12" x1="51.84" x2="54"  stroke="white"/>
        <circle r="2.52" cy="18.792" stroke-width="0.864" fill="none"  stroke="white" cx="48.456"/>
        <circle r="0.432" cy="18.792" stroke-width="0.864" fill="none"  stroke="white" cx="48.456"/>
        <g stroke-width="0" >
            <title >element:JP1</title>
            <g stroke-width="0" >
                <title >package:1X08</title>
                <line y1="36" stroke-width="0.576" stroke-linecap="round" y2="36" x1="45" x2="48.6"  stroke="white"/>
                <line y1="36" stroke-width="0.576" stroke-linecap="round" y2="37.8" x1="48.6" x2="50.4"  stroke="white"/>
                <line y1="41.4" stroke-width="0.576" stroke-linecap="round" y2="43.2" x1="50.4" x2="48.6"  stroke="white"/>
                <line y1="37.8" stroke-width="0.576" stroke-linecap="round" y2="36" x1="36" x2="37.8"  stroke="white"/>
                <line y1="36" stroke-width="0.576" stroke-linecap="round" y2="36" x1="37.8" x2="41.4"  stroke="white"/>
                <line y1="36" stroke-width="0.576" stroke-linecap="round" y2="37.8" x1="41.4" x2="43.2"  stroke="white"/>
                <line y1="41.4" stroke-width="0.576" stroke-linecap="round" y2="43.2" x1="43.2" x2="41.4"  stroke="white"/>
                <line y1="43.2" stroke-width="0.576" stroke-linecap="round" y2="43.2" x1="41.4" x2="37.8"  stroke="white"/>
                <line y1="43.2" stroke-width="0.576" stroke-linecap="round" y2="41.4" x1="37.8" x2="36"  stroke="white"/>
                <line y1="36" stroke-width="0.576" stroke-linecap="round" y2="37.8" x1="45" x2="43.2"  stroke="white"/>
                <line y1="41.4" stroke-width="0.576" stroke-linecap="round" y2="43.2" x1="43.2" x2="45"  stroke="white"/>
                <line y1="43.2" stroke-width="0.576" stroke-linecap="round" y2="43.2" x1="48.6" x2="45"  stroke="white"/>
                <line y1="36" stroke-width="0.576" stroke-linecap="round" y2="36" x1="23.4" x2="27"  stroke="white"/>
                <line y1="36" stroke-width="0.576" stroke-linecap="round" y2="37.8" x1="27" x2="28.8"  stroke="white"/>
                <line y1="41.4" stroke-width="0.576" stroke-linecap="round" y2="43.2" x1="28.8" x2="27"  stroke="white"/>
                <line y1="37.8" stroke-width="0.576" stroke-linecap="round" y2="36" x1="28.8" x2="30.6"  stroke="white"/>
                <line y1="36" stroke-width="0.576" stroke-linecap="round" y2="36" x1="30.6" x2="34.2"  stroke="white"/>
                <line y1="36" stroke-width="0.576" stroke-linecap="round" y2="37.8" x1="34.2" x2="36"  stroke="white"/>
                <line y1="41.4" stroke-width="0.576" stroke-linecap="round" y2="43.2" x1="36" x2="34.2"  stroke="white"/>
                <line y1="43.2" stroke-width="0.576" stroke-linecap="round" y2="43.2" x1="34.2" x2="30.6"  stroke="white"/>
                <line y1="43.2" stroke-width="0.576" stroke-linecap="round" y2="41.4" x1="30.6" x2="28.8"  stroke="white"/>
                <line y1="37.8" stroke-width="0.576" stroke-linecap="round" y2="36" x1="14.4" x2="16.2"  stroke="white"/>
                <line y1="36" stroke-width="0.576" stroke-linecap="round" y2="36" x1="16.2" x2="19.8"  stroke="white"/>
                <line y1="36" stroke-width="0.576" stroke-linecap="round" y2="37.8" x1="19.8" x2="21.6"  stroke="white"/>
                <line y1="41.4" stroke-width="0.576" stroke-linecap="round" y2="43.2" x1="21.6" x2="19.8"  stroke="white"/>
                <line y1="43.2" stroke-width="0.576" stroke-linecap="round" y2="43.2" x1="19.8" x2="16.2"  stroke="white"/>
                <line y1="43.2" stroke-width="0.576" stroke-linecap="round" y2="41.4" x1="16.2" x2="14.4"  stroke="white"/>
                <line y1="36" stroke-width="0.576" stroke-linecap="round" y2="37.8" x1="23.4" x2="21.6"  stroke="white"/>
                <line y1="41.4" stroke-width="0.576" stroke-linecap="round" y2="43.2" x1="21.6" x2="23.4"  stroke="white"/>
                <line y1="43.2" stroke-width="0.576" stroke-linecap="round" y2="43.2" x1="27" x2="23.4"  stroke="white"/>
                <line y1="36" stroke-width="0.576" stroke-linecap="round" y2="36" x1="1.8" x2="5.4"  stroke="white"/>
                <line y1="36" stroke-width="0.576" stroke-linecap="round" y2="37.8" x1="5.4" x2="7.2"  stroke="white"/>
                <line y1="41.4" stroke-width="0.576" stroke-linecap="round" y2="43.2" x1="7.2" x2="5.4"  stroke="white"/>
                <line y1="37.8" stroke-width="0.576" stroke-linecap="round" y2="36" x1="7.2" x2="9"  stroke="white"/>
                <line y1="36" stroke-width="0.576" stroke-linecap="round" y2="36" x1="9" x2="12.6"  stroke="white"/>
                <line y1="36" stroke-width="0.576" stroke-linecap="round" y2="37.8" x1="12.6" x2="14.4"  stroke="white"/>
                <line y1="41.4" stroke-width="0.576" stroke-linecap="round" y2="43.2" x1="14.4" x2="12.6"  stroke="white"/>
                <line y1="43.2" stroke-width="0.576" stroke-linecap="round" y2="43.2" x1="12.6" x2="9"  stroke="white"/>
                <line y1="43.2" stroke-width="0.576" stroke-linecap="round" y2="41.4" x1="9" x2="7.2"  stroke="white"/>
                <line y1="37.8" stroke-width="0.576" stroke-linecap="round" y2="41.4" x1="0" x2="0"  stroke="white"/>
                <line y1="36" stroke-width="0.576" stroke-linecap="round" y2="37.8" x1="1.8" x2="0"  stroke="white"/>
                <line y1="41.4" stroke-width="0.576" stroke-linecap="round" y2="43.2" x1="0" x2="1.8"  stroke="white"/>
                <line y1="43.2" stroke-width="0.576" stroke-linecap="round" y2="43.2" x1="5.4" x2="1.8"  stroke="white"/>
                <line y1="36" stroke-width="0.576" stroke-linecap="round" y2="36" x1="52.2" x2="55.8"  stroke="white"/>
                <line y1="36" stroke-width="0.576" stroke-linecap="round" y2="37.8" x1="55.8" x2="57.6"  stroke="white"/>
                <line y1="37.8" stroke-width="0.576" stroke-linecap="round" y2="41.4" x1="57.6" x2="57.6"  stroke="white"/>
                <line y1="41.4" stroke-width="0.576" stroke-linecap="round" y2="43.2" x1="57.6" x2="55.8"  stroke="white"/>
                <line y1="36" stroke-width="0.576" stroke-linecap="round" y2="37.8" x1="52.2" x2="50.4"  stroke="white"/>
                <line y1="41.4" stroke-width="0.576" stroke-linecap="round" y2="43.2" x1="50.4" x2="52.2"  stroke="white"/>
                <line y1="43.2" stroke-width="0.576" stroke-linecap="round" y2="43.2" x1="55.8" x2="52.2"  stroke="white"/>
            </g>
        </g>
        <g stroke-width="0" >
            <title >element:JP2</title>
            <g stroke-width="0" >
                <title >package:STAND-OFF</title>
            </g>
        </g>
        <g stroke-width="0" >
            <title >element:JP3</title>
            <g stroke-width="0" >
                <title >package:STAND-OFF</title>
            </g>
        </g>
        <g stroke-width="0" >
            <title >element:U$2</title>
            <g stroke-width="0" >
                <title >package:SFE-NEW-WEBLOGO</title>
            </g>
        </g>
        <g stroke-width="0" >
            <title >element:U1</title>
            <g stroke-width="0" >
                <title >package:LGA14</title>
                <line y1="13.748" stroke-width="0.576" stroke-linecap="round" y2="16.0158" x1="35.8866" x2="35.8866"  stroke="white"/>
                <line y1="19.9842" stroke-width="0.576" stroke-linecap="round" y2="22.252" x1="35.8866" x2="35.8866"  stroke="white"/>
                <line y1="22.252" stroke-width="0.576" stroke-linecap="round" y2="19.9842" x1="21.7134" x2="21.7134"  stroke="white"/>
                <line y1="16.0158" stroke-width="0.576" stroke-linecap="round" y2="13.748" x1="21.7134" x2="21.7134"  stroke="white"/>
                <circle r="0.283465" cy="18" stroke-width="0.576" fill="none"  stroke="white" cx="31.6346"/>
            </g>
        </g>
    </g>
    <g stroke-width="0" gorn="0.3"  id="copper1">
        <g stroke-width="0" gorn="0.3.0"  id="copper0">
            <circle r="2.052" cy="39.6" stroke-width="1.224" fill="none" gorn="0.3.0.0"  connectorname="GND" stroke="#F7BD13" cx="3.6" id="connector6pad"/>
            <rect stroke-width="1.224" fill="none" x="1.548" width="4.104" height="4.104" y="37.548"  stroke="#F7BD13"/>
            <circle r="2.052" cy="39.6" stroke-width="1.224" fill="none" gorn="0.3.0.2"  connectorname="VCC" stroke="#F7BD13" cx="10.8" id="connector7pad"/>
            <circle r="2.052" cy="39.6" stroke-width="1.224" fill="none" gorn="0.3.0.3"  connectorname="CS" stroke="#F7BD13" cx="18" id="connector8pad"/>
            <circle r="2.052" cy="39.6" stroke-width="1.224" fill="none" gorn="0.3.0.4"  connectorname="INT1" stroke="#F7BD13" cx="25.2" id="connector9pad"/>
            <circle r="2.052" cy="39.6" stroke-width="1.224" fill="none" gorn="0.3.0.5"  connectorname="INT2" stroke="#F7BD13" cx="32.4" id="connector10pad"/>
            <circle r="2.052" cy="39.6" stroke-width="1.224" fill="none" gorn="0.3.0.6"  connectorname="SDO" stroke="#F7BD13" cx="39.6" id="connector11pad"/>
            <circle r="2.052" cy="39.6" stroke-width="1.224" fill="none" gorn="0.3.0.7"  connectorname="SDA" stroke="#F7BD13" cx="46.8" id="connector12pad"/>
            <circle r="2.052" cy="39.6" stroke-width="1.224" fill="none" gorn="0.3.0.8"  connectorname="SCL" stroke="#F7BD13" cx="54" id="connector13pad"/>
        </g>
    </g>
</svg>
