<?xml version='1.0' encoding='UTF-8' standalone='no'?>
<!-- Created with Fritzing (http://www.fritzing.org/) -->
<svg xmlns="http://www.w3.org/2000/svg" version="1.2" width="0.8in" x="0in" baseProfile="tiny"  y="0in" height="0.6in" viewBox="0 0 57.6 43.2">
    <desc >
        <referenceFile >ADXL345-BreakoutBoard-v13_pcb.svg</referenceFile>
    </desc>
    <desc >Fritzing footprint generated by brd2svg</desc>
    <g id="silkscreen"  gorn="0.2" stroke-width="0">
        <path  fill="none" d="M0.288,42.912L57.312,42.912L57.312,0.288L0.288,0.288L0.288,42.912M2.808,7.2a4.392,4.392,0,1,1,8.784,0,4.392,4.392,0,1,1,-8.784,0zM46.008,7.2a4.392,4.392,0,1,1,8.784,0,4.392,4.392,0,1,1,-8.784,0z" stroke-width="0.576" stroke="white"/>
        <line y1="24.12" stroke-linecap="round"  x2="54" x1="43.2" stroke-width="0.864" stroke="white" y2="24.12"/>
        <line y1="24.12" stroke-linecap="round"  x2="43.2" x1="43.2" stroke-width="0.864" stroke="white" y2="12.96"/>
        <line y1="12.96" stroke-linecap="round"  x2="41.04" x1="43.2" stroke-width="0.864" stroke="white" y2="15.12"/>
        <line y1="12.96" stroke-linecap="round"  x2="45.36" x1="43.2" stroke-width="0.864" stroke="white" y2="15.12"/>
        <line y1="21.96" stroke-linecap="round"  x2="54" x1="51.84" stroke-width="0.864" stroke="white" y2="24.12"/>
        <line y1="26.28" stroke-linecap="round"  x2="54" x1="51.84" stroke-width="0.864" stroke="white" y2="24.12"/>
        <circle cx="48.456"  fill="none" r="2.52" cy="18.792" stroke-width="0.864" stroke="white"/>
        <circle cx="48.456"  fill="none" r="0.432" cy="18.792" stroke-width="0.864" stroke="white"/>
        <g  stroke-width="0">
            <title >element:JP1</title>
            <g  stroke-width="0">
                <title >package:1X08</title>
                <line y1="36" stroke-linecap="round"  x2="48.6" x1="45" stroke-width="0.576" stroke="white" y2="36"/>
                <line y1="36" stroke-linecap="round"  x2="50.4" x1="48.6" stroke-width="0.576" stroke="white" y2="37.8"/>
                <line y1="41.4" stroke-linecap="round"  x2="48.6" x1="50.4" stroke-width="0.576" stroke="white" y2="43.2"/>
                <line y1="37.8" stroke-linecap="round"  x2="37.8" x1="36" stroke-width="0.576" stroke="white" y2="36"/>
                <line y1="36" stroke-linecap="round"  x2="41.4" x1="37.8" stroke-width="0.576" stroke="white" y2="36"/>
                <line y1="36" stroke-linecap="round"  x2="43.2" x1="41.4" stroke-width="0.576" stroke="white" y2="37.8"/>
                <line y1="41.4" stroke-linecap="round"  x2="41.4" x1="43.2" stroke-width="0.576" stroke="white" y2="43.2"/>
                <line y1="43.2" stroke-linecap="round"  x2="37.8" x1="41.4" stroke-width="0.576" stroke="white" y2="43.2"/>
                <line y1="43.2" stroke-linecap="round"  x2="36" x1="37.8" stroke-width="0.576" stroke="white" y2="41.4"/>
                <line y1="36" stroke-linecap="round"  x2="43.2" x1="45" stroke-width="0.576" stroke="white" y2="37.8"/>
                <line y1="41.4" stroke-linecap="round"  x2="45" x1="43.2" stroke-width="0.576" stroke="white" y2="43.2"/>
                <line y1="43.2" stroke-linecap="round"  x2="45" x1="48.6" stroke-width="0.576" stroke="white" y2="43.2"/>
                <line y1="36" stroke-linecap="round"  x2="27" x1="23.4" stroke-width="0.576" stroke="white" y2="36"/>
                <line y1="36" stroke-linecap="round"  x2="28.8" x1="27" stroke-width="0.576" stroke="white" y2="37.8"/>
                <line y1="41.4" stroke-linecap="round"  x2="27" x1="28.8" stroke-width="0.576" stroke="white" y2="43.2"/>
                <line y1="37.8" stroke-linecap="round"  x2="30.6" x1="28.8" stroke-width="0.576" stroke="white" y2="36"/>
                <line y1="36" stroke-linecap="round"  x2="34.2" x1="30.6" stroke-width="0.576" stroke="white" y2="36"/>
                <line y1="36" stroke-linecap="round"  x2="36" x1="34.2" stroke-width="0.576" stroke="white" y2="37.8"/>
                <line y1="41.4" stroke-linecap="round"  x2="34.2" x1="36" stroke-width="0.576" stroke="white" y2="43.2"/>
                <line y1="43.2" stroke-linecap="round"  x2="30.6" x1="34.2" stroke-width="0.576" stroke="white" y2="43.2"/>
                <line y1="43.2" stroke-linecap="round"  x2="28.8" x1="30.6" stroke-width="0.576" stroke="white" y2="41.4"/>
                <line y1="37.8" stroke-linecap="round"  x2="16.2" x1="14.4" stroke-width="0.576" stroke="white" y2="36"/>
                <line y1="36" stroke-linecap="round"  x2="19.8" x1="16.2" stroke-width="0.576" stroke="white" y2="36"/>
                <line y1="36" stroke-linecap="round"  x2="21.6" x1="19.8" stroke-width="0.576" stroke="white" y2="37.8"/>
                <line y1="41.4" stroke-linecap="round"  x2="19.8" x1="21.6" stroke-width="0.576" stroke="white" y2="43.2"/>
                <line y1="43.2" stroke-linecap="round"  x2="16.2" x1="19.8" stroke-width="0.576" stroke="white" y2="43.2"/>
                <line y1="43.2" stroke-linecap="round"  x2="14.4" x1="16.2" stroke-width="0.576" stroke="white" y2="41.4"/>
                <line y1="36" stroke-linecap="round"  x2="21.6" x1="23.4" stroke-width="0.576" stroke="white" y2="37.8"/>
                <line y1="41.4" stroke-linecap="round"  x2="23.4" x1="21.6" stroke-width="0.576" stroke="white" y2="43.2"/>
                <line y1="43.2" stroke-linecap="round"  x2="23.4" x1="27" stroke-width="0.576" stroke="white" y2="43.2"/>
                <line y1="36" stroke-linecap="round"  x2="5.4" x1="1.8" stroke-width="0.576" stroke="white" y2="36"/>
                <line y1="36" stroke-linecap="round"  x2="7.2" x1="5.4" stroke-width="0.576" stroke="white" y2="37.8"/>
                <line y1="41.4" stroke-linecap="round"  x2="5.4" x1="7.2" stroke-width="0.576" stroke="white" y2="43.2"/>
                <line y1="37.8" stroke-linecap="round"  x2="9" x1="7.2" stroke-width="0.576" stroke="white" y2="36"/>
                <line y1="36" stroke-linecap="round"  x2="12.6" x1="9" stroke-width="0.576" stroke="white" y2="36"/>
                <line y1="36" stroke-linecap="round"  x2="14.4" x1="12.6" stroke-width="0.576" stroke="white" y2="37.8"/>
                <line y1="41.4" stroke-linecap="round"  x2="12.6" x1="14.4" stroke-width="0.576" stroke="white" y2="43.2"/>
                <line y1="43.2" stroke-linecap="round"  x2="9" x1="12.6" stroke-width="0.576" stroke="white" y2="43.2"/>
                <line y1="43.2" stroke-linecap="round"  x2="7.2" x1="9" stroke-width="0.576" stroke="white" y2="41.4"/>
                <line y1="37.8" stroke-linecap="round"  x2="0" x1="0" stroke-width="0.576" stroke="white" y2="41.4"/>
                <line y1="36" stroke-linecap="round"  x2="0" x1="1.8" stroke-width="0.576" stroke="white" y2="37.8"/>
                <line y1="41.4" stroke-linecap="round"  x2="1.8" x1="0" stroke-width="0.576" stroke="white" y2="43.2"/>
                <line y1="43.2" stroke-linecap="round"  x2="1.8" x1="5.4" stroke-width="0.576" stroke="white" y2="43.2"/>
                <line y1="36" stroke-linecap="round"  x2="55.8" x1="52.2" stroke-width="0.576" stroke="white" y2="36"/>
                <line y1="36" stroke-linecap="round"  x2="57.6" x1="55.8" stroke-width="0.576" stroke="white" y2="37.8"/>
                <line y1="37.8" stroke-linecap="round"  x2="57.6" x1="57.6" stroke-width="0.576" stroke="white" y2="41.4"/>
                <line y1="41.4" stroke-linecap="round"  x2="55.8" x1="57.6" stroke-width="0.576" stroke="white" y2="43.2"/>
                <line y1="36" stroke-linecap="round"  x2="50.4" x1="52.2" stroke-width="0.576" stroke="white" y2="37.8"/>
                <line y1="41.4" stroke-linecap="round"  x2="52.2" x1="50.4" stroke-width="0.576" stroke="white" y2="43.2"/>
                <line y1="43.2" stroke-linecap="round"  x2="52.2" x1="55.8" stroke-width="0.576" stroke="white" y2="43.2"/>
            </g>
        </g>
        <g  stroke-width="0">
            <title >element:JP2</title>
            <g  stroke-width="0">
                <title >package:STAND-OFF</title>
            </g>
        </g>
        <g  stroke-width="0">
            <title >element:JP3</title>
            <g  stroke-width="0">
                <title >package:STAND-OFF</title>
            </g>
        </g>
        <g  stroke-width="0">
            <title >element:U$2</title>
            <g  stroke-width="0">
                <title >package:SFE-NEW-WEBLOGO</title>
            </g>
        </g>
        <g  stroke-width="0">
            <title >element:U1</title>
            <g  stroke-width="0">
                <title >package:LGA14</title>
                <line y1="13.748" stroke-linecap="round"  x2="35.8866" x1="35.8866" stroke-width="0.576" stroke="white" y2="16.0158"/>
                <line y1="19.9842" stroke-linecap="round"  x2="35.8866" x1="35.8866" stroke-width="0.576" stroke="white" y2="22.252"/>
                <line y1="22.252" stroke-linecap="round"  x2="21.7134" x1="21.7134" stroke-width="0.576" stroke="white" y2="19.9842"/>
                <line y1="16.0158" stroke-linecap="round"  x2="21.7134" x1="21.7134" stroke-width="0.576" stroke="white" y2="13.748"/>
                <circle cx="31.6346"  fill="none" r="0.283465" cy="18" stroke-width="0.576" stroke="white"/>
            </g>
        </g>
    </g>
    <g id="copper1"  gorn="0.3" stroke-width="0">
        <g id="copper0"  gorn="0.3.0" stroke-width="0">
            <circle id="connector6pad" cx="3.6"  fill="none" r="2.052" gorn="0.3.0.0" cy="39.6" connectorname="GND" stroke-width="1.224" stroke="#F7BD13"/>
            <rect width="4.104" x="1.548"  fill="none" y="37.548" height="4.104" stroke-width="1.224" stroke="#F7BD13"/>
            <circle id="connector7pad" cx="10.8"  fill="none" r="2.052" gorn="0.3.0.2" cy="39.6" connectorname="VCC" stroke-width="1.224" stroke="#F7BD13"/>
            <circle id="connector8pad" cx="18"  fill="none" r="2.052" gorn="0.3.0.3" cy="39.6" connectorname="CS" stroke-width="1.224" stroke="#F7BD13"/>
            <circle id="connector9pad" cx="25.2"  fill="none" r="2.052" gorn="0.3.0.4" cy="39.6" connectorname="INT1" stroke-width="1.224" stroke="#F7BD13"/>
            <circle id="connector10pad" cx="32.4"  fill="none" r="2.052" gorn="0.3.0.5" cy="39.6" connectorname="INT2" stroke-width="1.224" stroke="#F7BD13"/>
            <circle id="connector11pad" cx="39.6"  fill="none" r="2.052" gorn="0.3.0.6" cy="39.6" connectorname="SDO" stroke-width="1.224" stroke="#F7BD13"/>
            <circle id="connector12pad" cx="46.8"  fill="none" r="2.052" gorn="0.3.0.7" cy="39.6" connectorname="SDA" stroke-width="1.224" stroke="#F7BD13"/>
            <circle id="connector13pad" cx="54"  fill="none" r="2.052" gorn="0.3.0.8" cy="39.6" connectorname="SCL" stroke-width="1.224" stroke="#F7BD13"/>
        </g>
    </g>
</svg>
