<?xml version="1.0" encoding="UTF-8" standalone="no"?>
<!-- Created with Fritzing (http://www.fritzing.org/) -->

<svg
   xmlns:dc="http://purl.org/dc/elements/1.1/"
   xmlns:cc="http://creativecommons.org/ns#"
   xmlns:rdf="http://www.w3.org/1999/02/22-rdf-syntax-ns#"
   xmlns:svg="http://www.w3.org/2000/svg"
   xmlns="http://www.w3.org/2000/svg"
   xmlns:sodipodi="http://sodipodi.sourceforge.net/DTD/sodipodi-0.dtd"
   xmlns:inkscape="http://www.inkscape.org/namespaces/inkscape"
   version="1.2"
   y="0in"
   height="0.6in"
   width="0.8in"
   x="0in"
   viewBox="0 0 57.6 43.2"
   id="svg5573"
   inkscape:version="0.48.4 r9939"
   sodipodi:docname="10DOF_99da484c39a332a650e2db62bf382f9b_3_breadboard.svg">
  <metadata
     id="metadata5947">
    <rdf:RDF>
      <cc:Work
         rdf:about="">
        <dc:format>image/svg+xml</dc:format>
        <dc:type
           rdf:resource="http://purl.org/dc/dcmitype/StillImage" />
        <dc:title></dc:title>
      </cc:Work>
    </rdf:RDF>
  </metadata>
  <defs
     id="defs5945" />
  <sodipodi:namedview
     pagecolor="#ffffff"
     bordercolor="#666666"
     borderopacity="1"
     objecttolerance="10"
     gridtolerance="10"
     guidetolerance="10"
     inkscape:pageopacity="0"
     inkscape:pageshadow="2"
     inkscape:window-width="1366"
     inkscape:window-height="705"
     id="namedview5943"
     showgrid="false"
     inkscape:zoom="3.9722222"
     inkscape:cx="1.4817083"
     inkscape:cy="2.4087419"
     inkscape:window-x="-8"
     inkscape:window-y="-8"
     inkscape:window-maximized="1"
     inkscape:current-layer="svg5573" />
  <desc
     id="desc5575">
    <referenceFile
       id="referenceFile5577">ADXL345-BreakoutBoard-v13_breadboard.svg</referenceFile>
  </desc>
  <desc
     id="desc5579">Fritzing breadboard generated by brd2svg</desc>
  <path
     d="m 0.2013986,42.998601 57.6000004,0 0,-43.1999996 -57.6000004,0 0,43.1999996 m 2.52,-35.9999996 c 0,-2.4504424 2.2295579,-4.6799982 4.6800002,-4.6799982 2.4504423,0 4.6800002,2.2295558 4.6800002,4.6799982 0,2.4504424 -2.2295579,4.6799986 -4.6800002,4.6799986 -2.4504423,0 -4.6800002,-2.2295562 -4.6800002,-4.6799986 z m -0.36,32.3999996 c 0,-0.753982 0.6860178,-1.439999 1.44,-1.439999 0.7539822,0 1.44,0.686017 1.44,1.439999 0,0.753982 -0.6860178,1.439999 -1.44,1.439999 -0.7539822,0 -1.44,-0.686017 -1.44,-1.439999 z m 7.2,0 c 0,-0.753982 0.6860174,-1.44 1.4400004,-1.44 0.753982,0 1.44,0.686018 1.44,1.44 0,0.753982 -0.686018,1.44 -1.44,1.44 -0.753983,0 -1.4400004,-0.686018 -1.4400004,-1.44 z m 7.2000004,0 c 0,-0.753982 0.686018,-1.439999 1.44,-1.439999 0.753982,0 1.44,0.686017 1.44,1.439999 0,0.753982 -0.686018,1.439999 -1.44,1.439999 -0.753982,0 -1.44,-0.686017 -1.44,-1.439999 z m 7.2,0 c 0,-0.753982 0.686018,-1.439999 1.44,-1.439999 0.753982,0 1.44,0.686017 1.44,1.439999 0,0.753982 -0.686018,1.439999 -1.44,1.439999 -0.753982,0 -1.44,-0.686017 -1.44,-1.439999 z m 7.2,0 c 0,-0.753982 0.686018,-1.439999 1.44,-1.439999 0.753982,0 1.44,0.686017 1.44,1.439999 0,0.753982 -0.686018,1.439999 -1.44,1.439999 -0.753982,0 -1.44,-0.686017 -1.44,-1.439999 z m 7.2,0 c 0,-0.753982 0.686018,-1.439999 1.44,-1.439999 0.753982,0 1.44,0.686017 1.44,1.439999 0,0.753982 -0.686018,1.439999 -1.44,1.439999 -0.753982,0 -1.44,-0.686017 -1.44,-1.439999 z m 7.2,0 c 0,-0.753982 0.686018,-1.439999 1.44,-1.439999 0.753982,0 1.44,0.686017 1.44,1.439999 0,0.753982 -0.686018,1.439999 -1.44,1.439999 -0.753982,0 -1.44,-0.686017 -1.44,-1.439999 z m 7.2,0 c 0,-0.753982 0.686018,-1.439999 1.44,-1.439999 0.753982,0 1.44,0.686017 1.44,1.439999 0,0.753982 -0.686018,1.439999 -1.44,1.439999 -0.753982,0 -1.44,-0.686017 -1.44,-1.439999 z"
     id="path5583"
     inkscape:connector-curvature="0"
     style="fill:#606e90;stroke:none;fill-opacity:1"
     sodipodi:nodetypes="cccccsssssssssssssssssssssssssssssssssssssssssssss" />
  <g
     id="g7350"
     transform="matrix(0.6508519,0,0,0.6508519,-8.8052084,-26.991477)">
    <rect
       transform="matrix(0.8,0,0,0.8,0,-1.5258789e-6)"
       y="61.552452"
       x="98.685318"
       height="21.650351"
       width="21.650351"
       id="rect7308"
       style="fill:#000000;fill-opacity:1;stroke:#000000;stroke-width:2;stroke-linecap:square;stroke-linejoin:round;stroke-miterlimit:4;stroke-opacity:1;stroke-dasharray:none" />
    <rect
       style="fill:#000000;fill-opacity:1;stroke:#000000;stroke-width:2;stroke-linecap:square;stroke-linejoin:round;stroke-miterlimit:4;stroke-opacity:1;stroke-dasharray:none"
       id="rect7310"
       width="21.650351"
       height="21.650351"
       x="98.685318"
       y="61.552452"
       transform="matrix(0.8,0,0,0.8,0,-1.5258789e-6)" />
    <rect
       y="68.327477"
       x="48.892517"
       height="10.970222"
       width="12.984208"
       id="rect7312"
       style="fill:#000000;fill-opacity:1;stroke:#000000;stroke-width:1.10250485;stroke-linecap:square;stroke-linejoin:round;stroke-miterlimit:4;stroke-opacity:1;stroke-dasharray:none" />
    <rect
       y="83.067543"
       x="18.317888"
       height="6.0607233"
       width="11.632317"
       id="rect7312-1"
       style="fill:#000000;fill-opacity:1;stroke:#000000;stroke-width:0.77564031;stroke-linecap:square;stroke-linejoin:round;stroke-miterlimit:4;stroke-opacity:1;stroke-dasharray:none" />
    <rect
       y="76.058052"
       x="78.172737"
       height="14.440543"
       width="12.829355"
       id="rect7312-7"
       style="fill:#c7c7c7;fill-opacity:1;stroke:#bfbfbf;stroke-width:1.25735879;stroke-linecap:square;stroke-linejoin:round;stroke-miterlimit:4;stroke-opacity:1;stroke-dasharray:none" />
  </g>
  <g
     style="stroke-width:0"
     id="g5605">
    <title
       id="title5607">text:VCC</title>
    <g
       id="g5609"
       transform="translate(12.6,34.92)">
      <g
         style="stroke-width:0"
         id="g5611">
        <g
           id="g5613"
           transform="matrix(0,-1,1,0,0,0)">
          <g
             style="stroke-width:0"
             id="g5615">
            <text
               style="font-size:4.17600012px;text-anchor:start;fill:#ffffff;stroke:none;font-family:OCRA"
               id="text5617"
               x="0"
               font-size="4.176"
               y="0">3V3</text>
          </g>
        </g>
      </g>
    </g>
  </g>
  <g
     style="stroke-width:0"
     id="g5619">
    <title
       id="title5621">text:GND</title>
    <g
       id="g5623"
       transform="translate(5.4,34.92)">
      <g
         style="stroke-width:0"
         id="g5625">
        <g
           id="g5627"
           transform="matrix(0,-1,1,0,0,0)">
          <g
             style="stroke-width:0"
             id="g5629">
            <text
               style="font-size:4.17600012px;text-anchor:start;fill:#ffffff;stroke:none;font-family:OCRA"
               id="text5631"
               x="0"
               font-size="4.176"
               y="0">VIN</text>
          </g>
        </g>
      </g>
    </g>
  </g>
  <g
     style="stroke-width:0"
     id="g5633">
    <title
       id="title5635">text:CS</title>
    <g
       id="g5637"
       transform="translate(19.8,34.92)">
      <g
         style="stroke-width:0"
         id="g5639">
        <g
           id="g5641"
           transform="matrix(0,-1,1,0,0,0)">
          <g
             style="stroke-width:0"
             id="g5643">
            <text
               style="font-size:4.17600012px;text-anchor:start;fill:#ffffff;stroke:none;font-family:OCRA"
               id="text5645"
               x="0"
               font-size="4.176"
               y="0">GND</text>
          </g>
        </g>
      </g>
    </g>
  </g>
  <g
     style="stroke-width:0"
     id="g5647">
    <title
       id="title5649">text:SDO</title>
    <g
       id="g5651"
       transform="translate(41.4,34.92)">
      <g
         style="stroke-width:0"
         id="g5653">
        <g
           id="g5655"
           transform="matrix(0,-1,1,0,0,0)">
          <g
             style="stroke-width:0"
             id="g5657">
            <text
               style="font-size:4.17600012px;text-anchor:start;fill:#ffffff;stroke:none;font-family:OCRA"
               id="text5659"
               x="0"
               font-size="4.176"
               y="0">SDO</text>
          </g>
        </g>
      </g>
    </g>
  </g>
  <g
     style="stroke-width:0"
     id="g5661">
    <title
       id="title5663">text:SDA</title>
    <g
       id="g5665"
       transform="translate(48.6,34.92)">
      <g
         style="stroke-width:0"
         id="g5667">
        <g
           id="g5669"
           transform="matrix(0,-1,1,0,0,0)">
          <g
             style="stroke-width:0"
             id="g5671">
            <text
               style="font-size:4.17600012px;text-anchor:start;fill:#ffffff;stroke:none;font-family:OCRA"
               id="text5673"
               x="0"
               font-size="4.176"
               y="0">CS1</text>
          </g>
        </g>
      </g>
    </g>
  </g>
  <g
     style="stroke-width:0"
     id="g5675">
    <title
       id="title5677">text:SCL</title>
    <g
       id="g5679"
       transform="translate(55.8,34.92)">
      <g
         style="stroke-width:0"
         id="g5681">
        <g
           id="g5683"
           transform="matrix(0,-1,1,0,0,0)">
          <g
             style="stroke-width:0"
             id="g5685">
            <text
               style="font-size:4.17600012px;text-anchor:start;fill:#ffffff;stroke:none;font-family:OCRA"
               id="text5687"
               x="0"
               font-size="4.176"
               y="0">CS2</text>
          </g>
        </g>
      </g>
    </g>
  </g>
  <g
     style="stroke-width:0"
     id="g5689">
    <title
       id="title5691">text:INT1</title>
    <g
       id="g5693"
       transform="translate(27,34.92)">
      <g
         style="stroke-width:0"
         id="g5695">
        <g
           id="g5697"
           transform="matrix(0,-1,1,0,0,0)">
          <g
             style="stroke-width:0"
             id="g5699">
            <text
               style="font-size:4.17600012px;text-anchor:start;fill:#ffffff;stroke:none;font-family:OCRA"
               id="text5701"
               x="0"
               font-size="4.176"
               y="0">SCL</text>
          </g>
        </g>
      </g>
    </g>
  </g>
  <g
     style="stroke-width:0"
     id="g5703">
    <title
       id="title5705">text:INT2</title>
    <g
       id="g5707"
       transform="translate(34.2,34.92)">
      <g
         style="stroke-width:0"
         id="g5709">
        <g
           id="g5711"
           transform="matrix(0,-1,1,0,0,0)">
          <g
             style="stroke-width:0"
             id="g5713">
            <text
               style="font-size:4.17600012px;text-anchor:start;fill:#ffffff;stroke:none;font-family:OCRA"
               id="text5715"
               x="0"
               font-size="4.176"
               y="0">SDA</text>
          </g>
        </g>
      </g>
    </g>
  </g>
  <g
     style="stroke-width:0"
     id="g5779">
    <title
       id="title5781">element:JP1</title>
    <g
       style="stroke-width:0"
       id="g5783">
      <title
         id="title5785">package:1X08</title>
      <line
         style="stroke:#ffffff;stroke-width:0.57599998;stroke-linecap:round"
         id="line5787"
         x2="48.599998"
         x1="45"
         y2="36"
         y1="36" />
      <line
         style="stroke:#ffffff;stroke-width:0.57599998;stroke-linecap:round"
         id="line5789"
         x2="50.400002"
         x1="48.599998"
         y2="37.799999"
         y1="36" />
      <line
         style="stroke:#ffffff;stroke-width:0.57599998;stroke-linecap:round"
         id="line5791"
         x2="48.599998"
         x1="50.400002"
         y2="43.200001"
         y1="41.400002" />
      <line
         style="stroke:#ffffff;stroke-width:0.57599998;stroke-linecap:round"
         id="line5793"
         x2="37.799999"
         x1="36"
         y2="36"
         y1="37.799999" />
      <line
         style="stroke:#ffffff;stroke-width:0.57599998;stroke-linecap:round"
         id="line5795"
         x2="41.400002"
         x1="37.799999"
         y2="36"
         y1="36" />
      <line
         style="stroke:#ffffff;stroke-width:0.57599998;stroke-linecap:round"
         id="line5797"
         x2="43.200001"
         x1="41.400002"
         y2="37.799999"
         y1="36" />
      <line
         style="stroke:#ffffff;stroke-width:0.57599998;stroke-linecap:round"
         id="line5799"
         x2="41.400002"
         x1="43.200001"
         y2="43.200001"
         y1="41.400002" />
      <line
         style="stroke:#ffffff;stroke-width:0.57599998;stroke-linecap:round"
         id="line5801"
         x2="37.799999"
         x1="41.400002"
         y2="43.200001"
         y1="43.200001" />
      <line
         style="stroke:#ffffff;stroke-width:0.57599998;stroke-linecap:round"
         id="line5803"
         x2="36"
         x1="37.799999"
         y2="41.400002"
         y1="43.200001" />
      <line
         style="stroke:#ffffff;stroke-width:0.57599998;stroke-linecap:round"
         id="line5805"
         x2="43.200001"
         x1="45"
         y2="37.799999"
         y1="36" />
      <line
         style="stroke:#ffffff;stroke-width:0.57599998;stroke-linecap:round"
         id="line5807"
         x2="45"
         x1="43.200001"
         y2="43.200001"
         y1="41.400002" />
      <line
         style="stroke:#ffffff;stroke-width:0.57599998;stroke-linecap:round"
         id="line5809"
         x2="45"
         x1="48.599998"
         y2="43.200001"
         y1="43.200001" />
      <line
         style="stroke:#ffffff;stroke-width:0.57599998;stroke-linecap:round"
         id="line5811"
         x2="27"
         x1="23.4"
         y2="36"
         y1="36" />
      <line
         style="stroke:#ffffff;stroke-width:0.57599998;stroke-linecap:round"
         id="line5813"
         x2="28.799999"
         x1="27"
         y2="37.799999"
         y1="36" />
      <line
         style="stroke:#ffffff;stroke-width:0.57599998;stroke-linecap:round"
         id="line5815"
         x2="27"
         x1="28.799999"
         y2="43.200001"
         y1="41.400002" />
      <line
         style="stroke:#ffffff;stroke-width:0.57599998;stroke-linecap:round"
         id="line5817"
         x2="30.6"
         x1="28.799999"
         y2="36"
         y1="37.799999" />
      <line
         style="stroke:#ffffff;stroke-width:0.57599998;stroke-linecap:round"
         id="line5819"
         x2="34.200001"
         x1="30.6"
         y2="36"
         y1="36" />
      <line
         style="stroke:#ffffff;stroke-width:0.57599998;stroke-linecap:round"
         id="line5821"
         x2="36"
         x1="34.200001"
         y2="37.799999"
         y1="36" />
      <line
         style="stroke:#ffffff;stroke-width:0.57599998;stroke-linecap:round"
         id="line5823"
         x2="34.200001"
         x1="36"
         y2="43.200001"
         y1="41.400002" />
      <line
         style="stroke:#ffffff;stroke-width:0.57599998;stroke-linecap:round"
         id="line5825"
         x2="30.6"
         x1="34.200001"
         y2="43.200001"
         y1="43.200001" />
      <line
         style="stroke:#ffffff;stroke-width:0.57599998;stroke-linecap:round"
         id="line5827"
         x2="28.799999"
         x1="30.6"
         y2="41.400002"
         y1="43.200001" />
      <line
         style="stroke:#ffffff;stroke-width:0.57599998;stroke-linecap:round"
         id="line5829"
         x2="16.200001"
         x1="14.4"
         y2="36"
         y1="37.799999" />
      <line
         style="stroke:#ffffff;stroke-width:0.57599998;stroke-linecap:round"
         id="line5831"
         x2="19.799999"
         x1="16.200001"
         y2="36"
         y1="36" />
      <line
         style="stroke:#ffffff;stroke-width:0.57599998;stroke-linecap:round"
         id="line5833"
         x2="21.6"
         x1="19.799999"
         y2="37.799999"
         y1="36" />
      <line
         style="stroke:#ffffff;stroke-width:0.57599998;stroke-linecap:round"
         id="line5835"
         x2="19.799999"
         x1="21.6"
         y2="43.200001"
         y1="41.400002" />
      <line
         style="stroke:#ffffff;stroke-width:0.57599998;stroke-linecap:round"
         id="line5837"
         x2="16.200001"
         x1="19.799999"
         y2="43.200001"
         y1="43.200001" />
      <line
         style="stroke:#ffffff;stroke-width:0.57599998;stroke-linecap:round"
         id="line5839"
         x2="14.4"
         x1="16.200001"
         y2="41.400002"
         y1="43.200001" />
      <line
         style="stroke:#ffffff;stroke-width:0.57599998;stroke-linecap:round"
         id="line5841"
         x2="21.6"
         x1="23.4"
         y2="37.799999"
         y1="36" />
      <line
         style="stroke:#ffffff;stroke-width:0.57599998;stroke-linecap:round"
         id="line5843"
         x2="23.4"
         x1="21.6"
         y2="43.200001"
         y1="41.400002" />
      <line
         style="stroke:#ffffff;stroke-width:0.57599998;stroke-linecap:round"
         id="line5845"
         x2="23.4"
         x1="27"
         y2="43.200001"
         y1="43.200001" />
      <line
         style="stroke:#ffffff;stroke-width:0.57599998;stroke-linecap:round"
         id="line5847"
         x2="5.4000001"
         x1="1.8"
         y2="36"
         y1="36" />
      <line
         style="stroke:#ffffff;stroke-width:0.57599998;stroke-linecap:round"
         id="line5849"
         x2="7.1999998"
         x1="5.4000001"
         y2="37.799999"
         y1="36" />
      <line
         style="stroke:#ffffff;stroke-width:0.57599998;stroke-linecap:round"
         id="line5851"
         x2="5.4000001"
         x1="7.1999998"
         y2="43.200001"
         y1="41.400002" />
      <line
         style="stroke:#ffffff;stroke-width:0.57599998;stroke-linecap:round"
         id="line5853"
         x2="9"
         x1="7.1999998"
         y2="36"
         y1="37.799999" />
      <line
         style="stroke:#ffffff;stroke-width:0.57599998;stroke-linecap:round"
         id="line5855"
         x2="12.6"
         x1="9"
         y2="36"
         y1="36" />
      <line
         style="stroke:#ffffff;stroke-width:0.57599998;stroke-linecap:round"
         id="line5857"
         x2="14.4"
         x1="12.6"
         y2="37.799999"
         y1="36" />
      <line
         style="stroke:#ffffff;stroke-width:0.57599998;stroke-linecap:round"
         id="line5859"
         x2="12.6"
         x1="14.4"
         y2="43.200001"
         y1="41.400002" />
      <line
         style="stroke:#ffffff;stroke-width:0.57599998;stroke-linecap:round"
         id="line5861"
         x2="9"
         x1="12.6"
         y2="43.200001"
         y1="43.200001" />
      <line
         style="stroke:#ffffff;stroke-width:0.57599998;stroke-linecap:round"
         id="line5863"
         x2="7.1999998"
         x1="9"
         y2="41.400002"
         y1="43.200001" />
      <line
         style="stroke:#ffffff;stroke-width:0.57599998;stroke-linecap:round"
         id="line5865"
         x2="0"
         x1="0"
         y2="41.400002"
         y1="37.799999" />
      <line
         style="stroke:#ffffff;stroke-width:0.57599998;stroke-linecap:round"
         id="line5867"
         x2="0"
         x1="1.8"
         y2="37.799999"
         y1="36" />
      <line
         style="stroke:#ffffff;stroke-width:0.57599998;stroke-linecap:round"
         id="line5869"
         x2="1.8"
         x1="0"
         y2="43.200001"
         y1="41.400002" />
      <line
         style="stroke:#ffffff;stroke-width:0.57599998;stroke-linecap:round"
         id="line5871"
         x2="1.8"
         x1="5.4000001"
         y2="43.200001"
         y1="43.200001" />
      <line
         style="stroke:#ffffff;stroke-width:0.57599998;stroke-linecap:round"
         id="line5873"
         x2="55.799999"
         x1="52.200001"
         y2="36"
         y1="36" />
      <line
         style="stroke:#ffffff;stroke-width:0.57599998;stroke-linecap:round"
         id="line5875"
         x2="57.599998"
         x1="55.799999"
         y2="37.799999"
         y1="36" />
      <line
         style="stroke:#ffffff;stroke-width:0.57599998;stroke-linecap:round"
         id="line5877"
         x2="57.599998"
         x1="57.599998"
         y2="41.400002"
         y1="37.799999" />
      <line
         style="stroke:#ffffff;stroke-width:0.57599998;stroke-linecap:round"
         id="line5879"
         x2="55.799999"
         x1="57.599998"
         y2="43.200001"
         y1="41.400002" />
      <line
         style="stroke:#ffffff;stroke-width:0.57599998;stroke-linecap:round"
         id="line5881"
         x2="50.400002"
         x1="52.200001"
         y2="37.799999"
         y1="36" />
      <line
         style="stroke:#ffffff;stroke-width:0.57599998;stroke-linecap:round"
         id="line5883"
         x2="52.200001"
         x1="50.400002"
         y2="43.200001"
         y1="41.400002" />
      <line
         style="stroke:#ffffff;stroke-width:0.57599998;stroke-linecap:round"
         id="line5885"
         x2="52.200001"
         x1="55.799999"
         y2="43.200001"
         y1="43.200001" />
    </g>
  </g>
  <g
     style="stroke-width:0"
     id="g5887">
    <title
       id="title5889">element:JP2</title>
    <g
       style="stroke-width:0"
       id="g5891">
      <title
         id="title5893">package:STAND-OFF</title>
    </g>
  </g>
  <g
     style="stroke-width:0"
     id="g5895">
    <title
       id="title5897">element:JP3</title>
    <g
       style="stroke-width:0"
       id="g5899">
      <title
         id="title5901">package:STAND-OFF</title>
    </g>
  </g>
  <g
     style="stroke-width:0"
     id="g5903">
    <title
       id="title5905">element:U$2</title>
    <g
       style="stroke-width:0"
       id="g5907">
      <title
         id="title5909">package:SFE-NEW-WEBLOGO</title>
    </g>
  </g>
  <circle
     cy="39.599998"
     connectorname="GND"
     r="2.052"
     id="connector6pin"
     gorn="0.1.0.4"
     cx="3.5999999"
     d="m 5.652,39.599998 c 0,1.133289 -0.9187118,2.052001 -2.0520001,2.052001 -1.1332883,0 -2.052,-0.918712 -2.052,-2.052001 0,-1.133288 0.9187117,-2.052 2.052,-2.052 1.1332883,0 2.0520001,0.918712 2.0520001,2.052 z"
     sodipodi:cx="3.5999999"
     sodipodi:cy="39.599998"
     sodipodi:rx="2.052"
     sodipodi:ry="2.052"
     style="fill:none;stroke:#9a916c;stroke-width:1.22399998" />
  <rect
     y="37.548"
     height="4.1040001"
     width="4.1040001"
     x="1.548"
     id="rect5934"
     style="fill:none;stroke:#9a916c;stroke-width:1.22399998" />
  <circle
     cy="39.599998"
     connectorname="VCC"
     r="2.052"
     id="connector7pin"
     gorn="0.1.0.6"
     cx="10.8"
     d="m 12.852,39.599998 c 0,1.133289 -0.918711,2.052001 -2.052,2.052001 -1.1332881,0 -2.0519999,-0.918712 -2.0519999,-2.052001 0,-1.133288 0.9187118,-2.052 2.0519999,-2.052 1.133289,0 2.052,0.918712 2.052,2.052 z"
     sodipodi:cx="10.8"
     sodipodi:cy="39.599998"
     sodipodi:rx="2.052"
     sodipodi:ry="2.052"
     style="fill:none;stroke:#9a916c;stroke-width:1.22399998" />
  <circle
     cy="39.599998"
     connectorname="CS"
     r="2.052"
     id="connector8pin"
     gorn="0.1.0.7"
     cx="18"
     d="m 20.052,39.599998 c 0,1.133289 -0.918712,2.052001 -2.052,2.052001 -1.133288,0 -2.052,-0.918712 -2.052,-2.052001 0,-1.133288 0.918712,-2.052 2.052,-2.052 1.133288,0 2.052,0.918712 2.052,2.052 z"
     sodipodi:cx="18"
     sodipodi:cy="39.599998"
     sodipodi:rx="2.052"
     sodipodi:ry="2.052"
     style="fill:none;stroke:#9a916c;stroke-width:1.22399998" />
  <circle
     cy="39.599998"
     connectorname="INT1"
     r="2.052"
     id="connector9pin"
     gorn="0.1.0.8"
     cx="25.200001"
     d="m 27.252001,39.599998 c 0,1.133289 -0.918712,2.052001 -2.052,2.052001 -1.133289,0 -2.052,-0.918712 -2.052,-2.052001 0,-1.133288 0.918711,-2.052 2.052,-2.052 1.133288,0 2.052,0.918712 2.052,2.052 z"
     sodipodi:cx="25.200001"
     sodipodi:cy="39.599998"
     sodipodi:rx="2.052"
     sodipodi:ry="2.052"
     style="fill:none;stroke:#9a916c;stroke-width:1.22399998" />
  <circle
     cy="39.599998"
     connectorname="INT2"
     r="2.052"
     id="connector10pin"
     gorn="0.1.0.9"
     cx="32.400002"
     d="m 34.452002,39.599998 c 0,1.133289 -0.918712,2.052001 -2.052,2.052001 -1.133289,0 -2.052001,-0.918712 -2.052001,-2.052001 0,-1.133288 0.918712,-2.052 2.052001,-2.052 1.133288,0 2.052,0.918712 2.052,2.052 z"
     sodipodi:cx="32.400002"
     sodipodi:cy="39.599998"
     sodipodi:rx="2.052"
     sodipodi:ry="2.052"
     style="fill:none;stroke:#9a916c;stroke-width:1.22399998" />
  <circle
     cy="39.599998"
     connectorname="SDO"
     r="2.052"
     id="connector11pin"
     gorn="0.1.0.10"
     cx="39.599998"
     d="m 41.651999,39.599998 c 0,1.133289 -0.918712,2.052001 -2.052001,2.052001 -1.133288,0 -2.052,-0.918712 -2.052,-2.052001 0,-1.133288 0.918712,-2.052 2.052,-2.052 1.133289,0 2.052001,0.918712 2.052001,2.052 z"
     sodipodi:cx="39.599998"
     sodipodi:cy="39.599998"
     sodipodi:rx="2.052"
     sodipodi:ry="2.052"
     style="fill:none;stroke:#9a916c;stroke-width:1.22399998" />
  <circle
     cy="39.599998"
     connectorname="SDA"
     r="2.052"
     id="connector12pin"
     gorn="0.1.0.11"
     cx="46.799999"
     d="m 48.851999,39.599998 c 0,1.133289 -0.918711,2.052001 -2.052,2.052001 -1.133288,0 -2.052,-0.918712 -2.052,-2.052001 0,-1.133288 0.918712,-2.052 2.052,-2.052 1.133289,0 2.052,0.918712 2.052,2.052 z"
     sodipodi:cx="46.799999"
     sodipodi:cy="39.599998"
     sodipodi:rx="2.052"
     sodipodi:ry="2.052"
     style="fill:none;stroke:#9a916c;stroke-width:1.22399998" />
  <circle
     cy="39.599998"
     connectorname="SCL"
     r="2.052"
     id="connector13pin"
     gorn="0.1.0.12"
     cx="54"
     d="m 56.052,39.599998 c 0,1.133289 -0.918712,2.052001 -2.052,2.052001 -1.133288,0 -2.052,-0.918712 -2.052,-2.052001 0,-1.133288 0.918712,-2.052 2.052,-2.052 1.133288,0 2.052,0.918712 2.052,2.052 z"
     sodipodi:cx="54"
     sodipodi:cy="39.599998"
     sodipodi:rx="2.052"
     sodipodi:ry="2.052"
     style="fill:none;stroke:#9a916c;stroke-width:1.22399998" />
</svg>
