<?xml version='1.0' encoding='UTF-8' standalone='no'?>
<!-- Created with Fritzing (http://www.fritzing.org/) -->
<svg xmlns="http://www.w3.org/2000/svg"  version="1.2" y="0in" height="0.6in" width="0.8in" x="0in" baseProfile="tiny" viewBox="0 0 57.6 43.2">
    <desc>
        <referenceFile>ADXL345-BreakoutBoard-v13_breadboard.svg</referenceFile>
    </desc>
    <desc >Fritzing breadboard generated by brd2svg</desc>
    <g  id="breadboard" stroke-width="0" gorn="0.1">
        <g  id="icon" stroke-width="0" gorn="0.1.0">
            <path  fill="#C62717" stroke="none" stroke-width="0" d="M0,43.2L57.6,43.2L57.6,0L0,0L0,43.2M2.52,7.2a4.68,4.68,0,1,1,9.36,0,4.68,4.68,0,1,1,-9.36,0zM45.72,7.2a4.68,4.68,0,1,1,9.36,0,4.68,4.68,0,1,1,-9.36,0zM2.16,39.6a1.44,1.44,0,1,1,2.88,0,1.44,1.44,0,1,1,-2.88,0zM9.36,39.6a1.44,1.44,0,1,1,2.88,0,1.44,1.44,0,1,1,-2.88,0zM16.56,39.6a1.44,1.44,0,1,1,2.88,0,1.44,1.44,0,1,1,-2.88,0zM23.76,39.6a1.44,1.44,0,1,1,2.88,0,1.44,1.44,0,1,1,-2.88,0zM30.96,39.6a1.44,1.44,0,1,1,2.88,0,1.44,1.44,0,1,1,-2.88,0zM38.16,39.6a1.44,1.44,0,1,1,2.88,0,1.44,1.44,0,1,1,-2.88,0zM45.36,39.6a1.44,1.44,0,1,1,2.88,0,1.44,1.44,0,1,1,-2.88,0zM52.56,39.6a1.44,1.44,0,1,1,2.88,0,1.44,1.44,0,1,1,-2.88,0z"/>
            <g  stroke-width="0">
                <title >layer 21</title>
                <line  stroke="white" y1="24.12" stroke-linecap="round" stroke-width="0.864" y2="24.12" x1="43.2" x2="54"/>
                <line  stroke="white" y1="24.12" stroke-linecap="round" stroke-width="0.864" y2="12.96" x1="43.2" x2="43.2"/>
                <line  stroke="white" y1="12.96" stroke-linecap="round" stroke-width="0.864" y2="15.12" x1="43.2" x2="41.04"/>
                <line  stroke="white" y1="12.96" stroke-linecap="round" stroke-width="0.864" y2="15.12" x1="43.2" x2="45.36"/>
                <line  stroke="white" y1="21.96" stroke-linecap="round" stroke-width="0.864" y2="24.12" x1="51.84" x2="54"/>
                <line  stroke="white" y1="26.28" stroke-linecap="round" stroke-width="0.864" y2="24.12" x1="51.84" x2="54"/>
                <circle  cy="18.792" fill="none" r="2.52" stroke="white" stroke-width="0.864" cx="48.456"/>
                <circle  cy="18.792" fill="none" r="0.432" stroke="white" stroke-width="0.864" cx="48.456"/>
                <g  stroke-width="0">
                    <title >text:VCC</title>
                    <g  transform="matrix(1, 0, 0, 1, 12.6, 34.92)">
                        <g  stroke-width="0">
                            <g  transform="rotate(-90)">
                                <g  stroke-width="0">
                                    <text  fill="white" y="0" stroke="none" font-size="4.176" stroke-width="0" font-family="OCRA" text-anchor="start" x="0">VCC</text>
                                </g>
                            </g>
                        </g>
                    </g>
                </g>
                <g  stroke-width="0">
                    <title >text:GND</title>
                    <g  transform="matrix(1, 0, 0, 1, 5.4, 34.92)">
                        <g  stroke-width="0">
                            <g  transform="rotate(-90)">
                                <g  stroke-width="0">
                                    <text  fill="white" y="0" stroke="none" font-size="4.176" stroke-width="0" font-family="OCRA" text-anchor="start" x="0">GND</text>
                                </g>
                            </g>
                        </g>
                    </g>
                </g>
                <g  stroke-width="0">
                    <title >text:CS</title>
                    <g  transform="matrix(1, 0, 0, 1, 19.8, 34.92)">
                        <g  stroke-width="0">
                            <g  transform="rotate(-90)">
                                <g  stroke-width="0">
                                    <text  fill="white" y="0" stroke="none" font-size="4.176" stroke-width="0" font-family="OCRA" text-anchor="start" x="0">CS</text>
                                </g>
                            </g>
                        </g>
                    </g>
                </g>
                <g  stroke-width="0">
                    <title >text:SDO</title>
                    <g  transform="matrix(1, 0, 0, 1, 41.4, 34.92)">
                        <g  stroke-width="0">
                            <g  transform="rotate(-90)">
                                <g  stroke-width="0">
                                    <text  fill="white" y="0" stroke="none" font-size="4.176" stroke-width="0" font-family="OCRA" text-anchor="start" x="0">SDO</text>
                                </g>
                            </g>
                        </g>
                    </g>
                </g>
                <g  stroke-width="0">
                    <title >text:SDA</title>
                    <g  transform="matrix(1, 0, 0, 1, 48.6, 34.92)">
                        <g  stroke-width="0">
                            <g  transform="rotate(-90)">
                                <g  stroke-width="0">
                                    <text  fill="white" y="0" stroke="none" font-size="4.176" stroke-width="0" font-family="OCRA" text-anchor="start" x="0">SDA</text>
                                </g>
                            </g>
                        </g>
                    </g>
                </g>
                <g  stroke-width="0">
                    <title >text:SCL</title>
                    <g  transform="matrix(1, 0, 0, 1, 55.8, 34.92)">
                        <g  stroke-width="0">
                            <g  transform="rotate(-90)">
                                <g  stroke-width="0">
                                    <text  fill="white" y="0" stroke="none" font-size="4.176" stroke-width="0" font-family="OCRA" text-anchor="start" x="0">SCL</text>
                                </g>
                            </g>
                        </g>
                    </g>
                </g>
                <g  stroke-width="0">
                    <title >text:INT1</title>
                    <g  transform="matrix(1, 0, 0, 1, 27, 34.92)">
                        <g  stroke-width="0">
                            <g  transform="rotate(-90)">
                                <g  stroke-width="0">
                                    <text  fill="white" y="0" stroke="none" font-size="4.176" stroke-width="0" font-family="OCRA" text-anchor="start" x="0">INT1</text>
                                </g>
                            </g>
                        </g>
                    </g>
                </g>
                <g  stroke-width="0">
                    <title >text:INT2</title>
                    <g  transform="matrix(1, 0, 0, 1, 34.2, 34.92)">
                        <g  stroke-width="0">
                            <g  transform="rotate(-90)">
                                <g  stroke-width="0">
                                    <text  fill="white" y="0" stroke="none" font-size="4.176" stroke-width="0" font-family="OCRA" text-anchor="start" x="0">INT2</text>
                                </g>
                            </g>
                        </g>
                    </g>
                </g>
                <g  stroke-width="0">
                    <title >text:X</title>
                    <text  fill="white" y="24.84" stroke="none" font-size="3.3408" stroke-width="0" font-family="OCRA" text-anchor="start" x="54.72">X</text>
                </g>
                <g  stroke-width="0">
                    <title >text:Y</title>
                    <text  fill="white" y="11.88" stroke="none" font-size="3.3408" stroke-width="0" font-family="OCRA" text-anchor="start" x="42.192">Y</text>
                </g>
                <g  stroke-width="0">
                    <title >text:Z</title>
                    <text  fill="white" y="18" stroke="none" font-size="3.3408" stroke-width="0" font-family="OCRA" text-anchor="start" x="51.696">Z</text>
                </g>
                <g  stroke-width="0">
                    <title >element:CIO</title>
                    <g  stroke-width="0">
                        <title >package:0402-CAP</title>
                        <line  stroke="white" y1="10.8" stroke-linecap="round" stroke-width="1.152" y2="10.8" x1="39.5135" x2="39.6865"/>
                    </g>
                </g>
                <g  stroke-width="0">
                    <title >element:CS1</title>
                    <g  stroke-width="0">
                        <title >package:0402-CAP</title>
                        <line  stroke="white" y1="10.8" stroke-linecap="round" stroke-width="1.152" y2="10.8" x1="17.9135" x2="18.0865"/>
                    </g>
                </g>
                <g  stroke-width="0">
                    <title >element:CS2</title>
                    <g  stroke-width="0">
                        <title >package:EIA3216</title>
                        <line  stroke="white" y1="3.79842" stroke-linecap="round" stroke-width="0.576" y2="3.79842" x1="31.6346" x2="35.8866"/>
                        <line  stroke="white" y1="3.79842" stroke-linecap="round" stroke-width="0.576" y2="10.6016" x1="35.8866" x2="35.8866"/>
                        <line  stroke="white" y1="10.6016" stroke-linecap="round" stroke-width="0.576" y2="10.6016" x1="35.8866" x2="31.6346"/>
                        <line  stroke="white" y1="3.79842" stroke-linecap="round" stroke-width="0.576" y2="3.79842" x1="25.9654" x2="22.8473"/>
                        <line  stroke="white" y1="3.79842" stroke-linecap="round" stroke-width="0.576" y2="4.93228" x1="22.8473" x2="21.7134"/>
                        <line  stroke="white" y1="4.93228" stroke-linecap="round" stroke-width="0.576" y2="9.46771" x1="21.7134" x2="21.7134"/>
                        <line  stroke="white" y1="9.46771" stroke-linecap="round" stroke-width="0.576" y2="10.6016" x1="21.7134" x2="22.8473"/>
                        <line  stroke="white" y1="10.6016" stroke-linecap="round" stroke-width="0.576" y2="10.6016" x1="22.8473" x2="25.9654"/>
                    </g>
                </g>
                <g  stroke-width="0">
                    <title >element:JP1</title>
                    <g  stroke-width="0">
                        <title >package:1X08</title>
                        <line  stroke="white" y1="36" stroke-linecap="round" stroke-width="0.576" y2="36" x1="45" x2="48.6"/>
                        <line  stroke="white" y1="36" stroke-linecap="round" stroke-width="0.576" y2="37.8" x1="48.6" x2="50.4"/>
                        <line  stroke="white" y1="41.4" stroke-linecap="round" stroke-width="0.576" y2="43.2" x1="50.4" x2="48.6"/>
                        <line  stroke="white" y1="37.8" stroke-linecap="round" stroke-width="0.576" y2="36" x1="36" x2="37.8"/>
                        <line  stroke="white" y1="36" stroke-linecap="round" stroke-width="0.576" y2="36" x1="37.8" x2="41.4"/>
                        <line  stroke="white" y1="36" stroke-linecap="round" stroke-width="0.576" y2="37.8" x1="41.4" x2="43.2"/>
                        <line  stroke="white" y1="41.4" stroke-linecap="round" stroke-width="0.576" y2="43.2" x1="43.2" x2="41.4"/>
                        <line  stroke="white" y1="43.2" stroke-linecap="round" stroke-width="0.576" y2="43.2" x1="41.4" x2="37.8"/>
                        <line  stroke="white" y1="43.2" stroke-linecap="round" stroke-width="0.576" y2="41.4" x1="37.8" x2="36"/>
                        <line  stroke="white" y1="36" stroke-linecap="round" stroke-width="0.576" y2="37.8" x1="45" x2="43.2"/>
                        <line  stroke="white" y1="41.4" stroke-linecap="round" stroke-width="0.576" y2="43.2" x1="43.2" x2="45"/>
                        <line  stroke="white" y1="43.2" stroke-linecap="round" stroke-width="0.576" y2="43.2" x1="48.6" x2="45"/>
                        <line  stroke="white" y1="36" stroke-linecap="round" stroke-width="0.576" y2="36" x1="23.4" x2="27"/>
                        <line  stroke="white" y1="36" stroke-linecap="round" stroke-width="0.576" y2="37.8" x1="27" x2="28.8"/>
                        <line  stroke="white" y1="41.4" stroke-linecap="round" stroke-width="0.576" y2="43.2" x1="28.8" x2="27"/>
                        <line  stroke="white" y1="37.8" stroke-linecap="round" stroke-width="0.576" y2="36" x1="28.8" x2="30.6"/>
                        <line  stroke="white" y1="36" stroke-linecap="round" stroke-width="0.576" y2="36" x1="30.6" x2="34.2"/>
                        <line  stroke="white" y1="36" stroke-linecap="round" stroke-width="0.576" y2="37.8" x1="34.2" x2="36"/>
                        <line  stroke="white" y1="41.4" stroke-linecap="round" stroke-width="0.576" y2="43.2" x1="36" x2="34.2"/>
                        <line  stroke="white" y1="43.2" stroke-linecap="round" stroke-width="0.576" y2="43.2" x1="34.2" x2="30.6"/>
                        <line  stroke="white" y1="43.2" stroke-linecap="round" stroke-width="0.576" y2="41.4" x1="30.6" x2="28.8"/>
                        <line  stroke="white" y1="37.8" stroke-linecap="round" stroke-width="0.576" y2="36" x1="14.4" x2="16.2"/>
                        <line  stroke="white" y1="36" stroke-linecap="round" stroke-width="0.576" y2="36" x1="16.2" x2="19.8"/>
                        <line  stroke="white" y1="36" stroke-linecap="round" stroke-width="0.576" y2="37.8" x1="19.8" x2="21.6"/>
                        <line  stroke="white" y1="41.4" stroke-linecap="round" stroke-width="0.576" y2="43.2" x1="21.6" x2="19.8"/>
                        <line  stroke="white" y1="43.2" stroke-linecap="round" stroke-width="0.576" y2="43.2" x1="19.8" x2="16.2"/>
                        <line  stroke="white" y1="43.2" stroke-linecap="round" stroke-width="0.576" y2="41.4" x1="16.2" x2="14.4"/>
                        <line  stroke="white" y1="36" stroke-linecap="round" stroke-width="0.576" y2="37.8" x1="23.4" x2="21.6"/>
                        <line  stroke="white" y1="41.4" stroke-linecap="round" stroke-width="0.576" y2="43.2" x1="21.6" x2="23.4"/>
                        <line  stroke="white" y1="43.2" stroke-linecap="round" stroke-width="0.576" y2="43.2" x1="27" x2="23.4"/>
                        <line  stroke="white" y1="36" stroke-linecap="round" stroke-width="0.576" y2="36" x1="1.8" x2="5.4"/>
                        <line  stroke="white" y1="36" stroke-linecap="round" stroke-width="0.576" y2="37.8" x1="5.4" x2="7.2"/>
                        <line  stroke="white" y1="41.4" stroke-linecap="round" stroke-width="0.576" y2="43.2" x1="7.2" x2="5.4"/>
                        <line  stroke="white" y1="37.8" stroke-linecap="round" stroke-width="0.576" y2="36" x1="7.2" x2="9"/>
                        <line  stroke="white" y1="36" stroke-linecap="round" stroke-width="0.576" y2="36" x1="9" x2="12.6"/>
                        <line  stroke="white" y1="36" stroke-linecap="round" stroke-width="0.576" y2="37.8" x1="12.6" x2="14.4"/>
                        <line  stroke="white" y1="41.4" stroke-linecap="round" stroke-width="0.576" y2="43.2" x1="14.4" x2="12.6"/>
                        <line  stroke="white" y1="43.2" stroke-linecap="round" stroke-width="0.576" y2="43.2" x1="12.6" x2="9"/>
                        <line  stroke="white" y1="43.2" stroke-linecap="round" stroke-width="0.576" y2="41.4" x1="9" x2="7.2"/>
                        <line  stroke="white" y1="37.8" stroke-linecap="round" stroke-width="0.576" y2="41.4" x1="0" x2="0"/>
                        <line  stroke="white" y1="36" stroke-linecap="round" stroke-width="0.576" y2="37.8" x1="1.8" x2="0"/>
                        <line  stroke="white" y1="41.4" stroke-linecap="round" stroke-width="0.576" y2="43.2" x1="0" x2="1.8"/>
                        <line  stroke="white" y1="43.2" stroke-linecap="round" stroke-width="0.576" y2="43.2" x1="5.4" x2="1.8"/>
                        <line  stroke="white" y1="36" stroke-linecap="round" stroke-width="0.576" y2="36" x1="52.2" x2="55.8"/>
                        <line  stroke="white" y1="36" stroke-linecap="round" stroke-width="0.576" y2="37.8" x1="55.8" x2="57.6"/>
                        <line  stroke="white" y1="37.8" stroke-linecap="round" stroke-width="0.576" y2="41.4" x1="57.6" x2="57.6"/>
                        <line  stroke="white" y1="41.4" stroke-linecap="round" stroke-width="0.576" y2="43.2" x1="57.6" x2="55.8"/>
                        <line  stroke="white" y1="36" stroke-linecap="round" stroke-width="0.576" y2="37.8" x1="52.2" x2="50.4"/>
                        <line  stroke="white" y1="41.4" stroke-linecap="round" stroke-width="0.576" y2="43.2" x1="50.4" x2="52.2"/>
                        <line  stroke="white" y1="43.2" stroke-linecap="round" stroke-width="0.576" y2="43.2" x1="55.8" x2="52.2"/>
                    </g>
                </g>
                <g  stroke-width="0">
                    <title >element:JP2</title>
                    <g  stroke-width="0">
                        <title >package:STAND-OFF</title>
                    </g>
                </g>
                <g  stroke-width="0">
                    <title >element:JP3</title>
                    <g  stroke-width="0">
                        <title >package:STAND-OFF</title>
                    </g>
                </g>
                <g  stroke-width="0">
                    <title >element:U$2</title>
                    <g  stroke-width="0">
                        <title >package:SFE-NEW-WEBLOGO</title>
                    </g>
                </g>
                <g  stroke-width="0">
                    <title >element:U1</title>
                    <g  stroke-width="0">
                        <title >package:LGA14</title>
                        <line  stroke="white" y1="13.748" stroke-linecap="round" stroke-width="0.576" y2="16.0158" x1="35.8866" x2="35.8866"/>
                        <line  stroke="white" y1="19.9842" stroke-linecap="round" stroke-width="0.576" y2="22.252" x1="35.8866" x2="35.8866"/>
                        <line  stroke="white" y1="22.252" stroke-linecap="round" stroke-width="0.576" y2="19.9842" x1="21.7134" x2="21.7134"/>
                        <line  stroke="white" y1="16.0158" stroke-linecap="round" stroke-width="0.576" y2="13.748" x1="21.7134" x2="21.7134"/>
                        <circle  cy="18" fill="none" r="0.283465" stroke="white" stroke-width="0.576" cx="31.6346"/>
                    </g>
                </g>
            </g>
            <rect  fill="#333333" y="3.79842" stroke="none" height="6.80315" stroke-width="0" width="14.1732" fill-opacity="1" x="21.7134"/>
            <rect  fill="#333333" y="13.748" stroke="none" height="8.50392" stroke-width="0" width="14.1732" fill-opacity="1" x="21.7134"/>
            <circle  cy="39.6" fill="none" connectorname="GND" r="2.052" stroke="#9A916C" id="connector6pin" stroke-width="1.224" gorn="0.1.0.4" cx="3.6"/>
            <rect  fill="none" y="37.548" stroke="#9A916C" height="4.104" stroke-width="1.224" width="4.104" x="1.548"/>
            <circle  cy="39.6" fill="none" connectorname="VCC" r="2.052" stroke="#9A916C" id="connector7pin" stroke-width="1.224" gorn="0.1.0.6" cx="10.8"/>
            <circle  cy="39.6" fill="none" connectorname="CS" r="2.052" stroke="#9A916C" id="connector8pin" stroke-width="1.224" gorn="0.1.0.7" cx="18"/>
            <circle  cy="39.6" fill="none" connectorname="INT1" r="2.052" stroke="#9A916C" id="connector9pin" stroke-width="1.224" gorn="0.1.0.8" cx="25.2"/>
            <circle  cy="39.6" fill="none" connectorname="INT2" r="2.052" stroke="#9A916C" id="connector10pin" stroke-width="1.224" gorn="0.1.0.9" cx="32.4"/>
            <circle  cy="39.6" fill="none" connectorname="SDO" r="2.052" stroke="#9A916C" id="connector11pin" stroke-width="1.224" gorn="0.1.0.10" cx="39.6"/>
            <circle  cy="39.6" fill="none" connectorname="SDA" r="2.052" stroke="#9A916C" id="connector12pin" stroke-width="1.224" gorn="0.1.0.11" cx="46.8"/>
            <circle  cy="39.6" fill="none" connectorname="SCL" r="2.052" stroke="#9A916C" id="connector13pin" stroke-width="1.224" gorn="0.1.0.12" cx="54"/>
        </g>
    </g>
</svg>
