<?xml version='1.0' encoding='UTF-8' standalone='no'?>
<!-- Created with Fritzing (http://www.fritzing.org/) -->
<svg xmlns="http://www.w3.org/2000/svg" x="0in" width="0.8in" height="0.6in" y="0in" gorn="0" viewBox="0 0 57.6 43.2"  id="svg5573" version="1.2">
    <metadata  id="metadata5947">
        <rdf:RDF xmlns:rdf="http://www.w3.org/1999/02/22-rdf-syntax-ns#">
            <cc:Work xmlns:rdf="http://www.w3.org/1999/02/22-rdf-syntax-ns#" rdf:about="" xmlns:cc="http://creativecommons.org/ns#">
                <dc:format xmlns:dc="http://purl.org/dc/elements/1.1/">image/svg+xml</dc:format>
                <dc:type rdf:resource="http://purl.org/dc/dcmitype/StillImage" xmlns:rdf="http://www.w3.org/1999/02/22-rdf-syntax-ns#" xmlns:dc="http://purl.org/dc/elements/1.1/"/>
                <dc:title xmlns:dc="http://purl.org/dc/elements/1.1/"/>
            </cc:Work>
        </rdf:RDF>
    </metadata>
    <defs  id="defs5945"/>
    <desc  id="desc5575">
        <referenceFile  id="referenceFile5577">ADXL345-BreakoutBoard-v13_breadboard.svg</referenceFile>
    </desc>
    <desc  id="desc5579">Fritzing breadboard generated by brd2svg</desc>
    <path fill="#606e90" d="m 0.2013986,42.998601 57.6000004,0 0,-43.1999996 -57.6000004,0 0,43.1999996 m 2.52,-35.9999996 c 0,-2.4504424 2.2295579,-4.6799982 4.6800002,-4.6799982 2.4504423,0 4.6800002,2.2295558 4.6800002,4.6799982 0,2.4504424 -2.2295579,4.6799986 -4.6800002,4.6799986 -2.4504423,0 -4.6800002,-2.2295562 -4.6800002,-4.6799986 z m -0.36,32.3999996 c 0,-0.753982 0.6860178,-1.439999 1.44,-1.439999 0.7539822,0 1.44,0.686017 1.44,1.439999 0,0.753982 -0.6860178,1.439999 -1.44,1.439999 -0.7539822,0 -1.44,-0.686017 -1.44,-1.439999 z m 7.2,0 c 0,-0.753982 0.6860174,-1.44 1.4400004,-1.44 0.753982,0 1.44,0.686018 1.44,1.44 0,0.753982 -0.686018,1.44 -1.44,1.44 -0.753983,0 -1.4400004,-0.686018 -1.4400004,-1.44 z m 7.2000004,0 c 0,-0.753982 0.686018,-1.439999 1.44,-1.439999 0.753982,0 1.44,0.686017 1.44,1.439999 0,0.753982 -0.686018,1.439999 -1.44,1.439999 -0.753982,0 -1.44,-0.686017 -1.44,-1.439999 z m 7.2,0 c 0,-0.753982 0.686018,-1.439999 1.44,-1.439999 0.753982,0 1.44,0.686017 1.44,1.439999 0,0.753982 -0.686018,1.439999 -1.44,1.439999 -0.753982,0 -1.44,-0.686017 -1.44,-1.439999 z m 7.2,0 c 0,-0.753982 0.686018,-1.439999 1.44,-1.439999 0.753982,0 1.44,0.686017 1.44,1.439999 0,0.753982 -0.686018,1.439999 -1.44,1.439999 -0.753982,0 -1.44,-0.686017 -1.44,-1.439999 z m 7.2,0 c 0,-0.753982 0.686018,-1.439999 1.44,-1.439999 0.753982,0 1.44,0.686017 1.44,1.439999 0,0.753982 -0.686018,1.439999 -1.44,1.439999 -0.753982,0 -1.44,-0.686017 -1.44,-1.439999 z m 7.2,0 c 0,-0.753982 0.686018,-1.439999 1.44,-1.439999 0.753982,0 1.44,0.686017 1.44,1.439999 0,0.753982 -0.686018,1.439999 -1.44,1.439999 -0.753982,0 -1.44,-0.686017 -1.44,-1.439999 z m 7.2,0 c 0,-0.753982 0.686018,-1.439999 1.44,-1.439999 0.753982,0 1.44,0.686017 1.44,1.439999 0,0.753982 -0.686018,1.439999 -1.44,1.439999 -0.753982,0 -1.44,-0.686017 -1.44,-1.439999 z" gorn="0.4"  stroke="none" fill-opacity="1" id="path5583"/>
    <g transform="matrix(0.6508519,0,0,0.6508519,-8.8052084,-26.991477)" >
        <g >
            <g gorn="0.5.0.0"  id="g7350">
                <g transform="matrix(0.8,0,0,0.8,0,-1.5258789e-6)" >
                    <g >
                        <rect stroke-opacity="1" stroke-width="2" x="98.685318" style="stroke-linecap:square;stroke-linejoin:round;stroke-miterlimit:4;stroke-dasharray:none" fill="#000000" width="21.650351" height="21.650351" y="61.552452" gorn="0.5.0.0.0.0.0"  stroke="#000000" fill-opacity="1" id="rect7308"/>
                    </g>
                </g>
                <g transform="matrix(0.8,0,0,0.8,0,-1.5258789e-6)" >
                    <g >
                        <rect stroke-opacity="1" stroke-width="2" style="stroke-linecap:square;stroke-linejoin:round;stroke-miterlimit:4;stroke-dasharray:none" x="98.685318" fill="#000000" width="21.650351" height="21.650351" y="61.552452" gorn="0.5.0.0.1.0.0"  stroke="#000000" fill-opacity="1" id="rect7310"/>
                    </g>
                </g>
                <rect stroke-opacity="1" stroke-width="1.10250485" x="48.892517" style="stroke-linecap:square;stroke-linejoin:round;stroke-miterlimit:4;stroke-dasharray:none" fill="#000000" width="12.984208" height="10.970222" y="68.327477" gorn="0.5.0.0.2"  stroke="#000000" fill-opacity="1" id="rect7312"/>
                <rect stroke-opacity="1" stroke-width="0.77564031" x="18.317888" style="stroke-linecap:square;stroke-linejoin:round;stroke-miterlimit:4;stroke-dasharray:none" fill="#000000" width="11.632317" height="6.0607233" y="83.067543" gorn="0.5.0.0.3"  stroke="#000000" fill-opacity="1" id="rect7312-1"/>
                <rect stroke-opacity="1" stroke-width="1.25735879" x="78.172737" style="stroke-linecap:square;stroke-linejoin:round;stroke-miterlimit:4;stroke-dasharray:none" fill="#c7c7c7" width="12.829355" height="14.440543" y="76.058052" gorn="0.5.0.0.4"  stroke="#bfbfbf" fill-opacity="1" id="rect7312-7"/>
            </g>
        </g>
    </g>
    <g stroke-width="0" gorn="0.6"  id="g5605">
        <title  id="title5607">text:VCC</title>
        <g transform="translate(12.6,34.92)" >
            <g >
                <g gorn="0.6.1.0.0"  id="g5609">
                    <g stroke-width="0" gorn="0.6.1.0.0.0"  id="g5611">
                        <g transform="matrix(0,-1,1,0,0,0)" >
                            <g >
                                <g gorn="0.6.1.0.0.0.0.0.0"  id="g5613">
                                    <g stroke-width="0" gorn="0.6.1.0.0.0.0.0.0.0"  id="g5615">
                                        <text style="text-anchor:start;font-family:OCRA" x="0" fill="#ffffff" y="0" gorn="0.6.1.0.0.0.0.0.0.0.0"  stroke="none" id="text5617" font-size="3.3408">3V3</text>
                                    </g>
                                </g>
                            </g>
                        </g>
                    </g>
                </g>
            </g>
        </g>
    </g>
    <g stroke-width="0" gorn="0.7"  id="g5619">
        <title  id="title5621">text:GND</title>
        <g transform="translate(5.4,34.92)" >
            <g >
                <g gorn="0.7.1.0.0"  id="g5623">
                    <g stroke-width="0" gorn="0.7.1.0.0.0"  id="g5625">
                        <g transform="matrix(0,-1,1,0,0,0)" >
                            <g >
                                <g gorn="0.7.1.0.0.0.0.0.0"  id="g5627">
                                    <g stroke-width="0" gorn="0.7.1.0.0.0.0.0.0.0"  id="g5629">
                                        <text style="text-anchor:start;font-family:OCRA" x="0" fill="#ffffff" y="0" gorn="0.7.1.0.0.0.0.0.0.0.0"  stroke="none" id="text5631" font-size="3.3408">VIN</text>
                                    </g>
                                </g>
                            </g>
                        </g>
                    </g>
                </g>
            </g>
        </g>
    </g>
    <g stroke-width="0" gorn="0.8"  id="g5633">
        <title  id="title5635">text:CS</title>
        <g transform="translate(19.8,34.92)" >
            <g >
                <g gorn="0.8.1.0.0"  id="g5637">
                    <g stroke-width="0" gorn="0.8.1.0.0.0"  id="g5639">
                        <g transform="matrix(0,-1,1,0,0,0)" >
                            <g >
                                <g gorn="0.8.1.0.0.0.0.0.0"  id="g5641">
                                    <g stroke-width="0" gorn="0.8.1.0.0.0.0.0.0.0"  id="g5643">
                                        <text style="text-anchor:start;font-family:OCRA" x="0" fill="#ffffff" y="0" gorn="0.8.1.0.0.0.0.0.0.0.0"  stroke="none" id="text5645" font-size="3.3408">GND</text>
                                    </g>
                                </g>
                            </g>
                        </g>
                    </g>
                </g>
            </g>
        </g>
    </g>
    <g stroke-width="0" gorn="0.9"  id="g5647">
        <title  id="title5649">text:SDO</title>
        <g transform="translate(41.4,34.92)" >
            <g >
                <g gorn="0.9.1.0.0"  id="g5651">
                    <g stroke-width="0" gorn="0.9.1.0.0.0"  id="g5653">
                        <g transform="matrix(0,-1,1,0,0,0)" >
                            <g >
                                <g gorn="0.9.1.0.0.0.0.0.0"  id="g5655">
                                    <g stroke-width="0" gorn="0.9.1.0.0.0.0.0.0.0"  id="g5657">
                                        <text style="text-anchor:start;font-family:OCRA" x="0" fill="#ffffff" y="0" gorn="0.9.1.0.0.0.0.0.0.0.0"  stroke="none" id="text5659" font-size="3.3408">SDO</text>
                                    </g>
                                </g>
                            </g>
                        </g>
                    </g>
                </g>
            </g>
        </g>
    </g>
    <g stroke-width="0" gorn="0.10"  id="g5661">
        <title  id="title5663">text:SDA</title>
        <g transform="translate(48.6,34.92)" >
            <g >
                <g gorn="0.10.1.0.0"  id="g5665">
                    <g stroke-width="0" gorn="0.10.1.0.0.0"  id="g5667">
                        <g transform="matrix(0,-1,1,0,0,0)" >
                            <g >
                                <g gorn="0.10.1.0.0.0.0.0.0"  id="g5669">
                                    <g stroke-width="0" gorn="0.10.1.0.0.0.0.0.0.0"  id="g5671">
                                        <text style="text-anchor:start;font-family:OCRA" x="0" fill="#ffffff" y="0" gorn="0.10.1.0.0.0.0.0.0.0.0"  stroke="none" id="text5673" font-size="3.3408">CS1</text>
                                    </g>
                                </g>
                            </g>
                        </g>
                    </g>
                </g>
            </g>
        </g>
    </g>
    <g stroke-width="0" gorn="0.11"  id="g5675">
        <title  id="title5677">text:SCL</title>
        <g transform="translate(55.8,34.92)" >
            <g >
                <g gorn="0.11.1.0.0"  id="g5679">
                    <g stroke-width="0" gorn="0.11.1.0.0.0"  id="g5681">
                        <g transform="matrix(0,-1,1,0,0,0)" >
                            <g >
                                <g gorn="0.11.1.0.0.0.0.0.0"  id="g5683">
                                    <g stroke-width="0" gorn="0.11.1.0.0.0.0.0.0.0"  id="g5685">
                                        <text style="text-anchor:start;font-family:OCRA" x="0" fill="#ffffff" y="0" gorn="0.11.1.0.0.0.0.0.0.0.0"  stroke="none" id="text5687" font-size="3.3408">CS2</text>
                                    </g>
                                </g>
                            </g>
                        </g>
                    </g>
                </g>
            </g>
        </g>
    </g>
    <g stroke-width="0" gorn="0.12"  id="g5689">
        <title  id="title5691">text:INT1</title>
        <g transform="translate(27,34.92)" >
            <g >
                <g gorn="0.12.1.0.0"  id="g5693">
                    <g stroke-width="0" gorn="0.12.1.0.0.0"  id="g5695">
                        <g transform="matrix(0,-1,1,0,0,0)" >
                            <g >
                                <g gorn="0.12.1.0.0.0.0.0.0"  id="g5697">
                                    <g stroke-width="0" gorn="0.12.1.0.0.0.0.0.0.0"  id="g5699">
                                        <text style="text-anchor:start;font-family:OCRA" x="0" fill="#ffffff" y="0" gorn="0.12.1.0.0.0.0.0.0.0.0"  stroke="none" id="text5701" font-size="3.3408">SCL</text>
                                    </g>
                                </g>
                            </g>
                        </g>
                    </g>
                </g>
            </g>
        </g>
    </g>
    <g stroke-width="0" gorn="0.13"  id="g5703">
        <title  id="title5705">text:INT2</title>
        <g transform="translate(34.2,34.92)" >
            <g >
                <g gorn="0.13.1.0.0"  id="g5707">
                    <g stroke-width="0" gorn="0.13.1.0.0.0"  id="g5709">
                        <g transform="matrix(0,-1,1,0,0,0)" >
                            <g >
                                <g gorn="0.13.1.0.0.0.0.0.0"  id="g5711">
                                    <g stroke-width="0" gorn="0.13.1.0.0.0.0.0.0.0"  id="g5713">
                                        <text style="text-anchor:start;font-family:OCRA" x="0" fill="#ffffff" y="0" gorn="0.13.1.0.0.0.0.0.0.0.0"  stroke="none" id="text5715" font-size="3.3408">SDA</text>
                                    </g>
                                </g>
                            </g>
                        </g>
                    </g>
                </g>
            </g>
        </g>
    </g>
    <g stroke-width="0" gorn="0.14"  id="g5779">
        <title  id="title5781">element:JP1</title>
        <g stroke-width="0" gorn="0.14.1"  id="g5783">
            <title  id="title5785">package:1X08</title>
            <line y1="36" stroke-width="0.57599998" style="stroke-linecap:round" x1="45" y2="36" gorn="0.14.1.1" x2="48.599998"  stroke="#ffffff" id="line5787"/>
            <line y1="36" stroke-width="0.57599998" style="stroke-linecap:round" x1="48.599998" y2="37.799999" gorn="0.14.1.2" x2="50.400002"  stroke="#ffffff" id="line5789"/>
            <line y1="41.400002" stroke-width="0.57599998" style="stroke-linecap:round" x1="50.400002" y2="43.200001" gorn="0.14.1.3" x2="48.599998"  stroke="#ffffff" id="line5791"/>
            <line y1="37.799999" stroke-width="0.57599998" style="stroke-linecap:round" x1="36" y2="36" gorn="0.14.1.4" x2="37.799999"  stroke="#ffffff" id="line5793"/>
            <line y1="36" stroke-width="0.57599998" style="stroke-linecap:round" x1="37.799999" y2="36" gorn="0.14.1.5" x2="41.400002"  stroke="#ffffff" id="line5795"/>
            <line y1="36" stroke-width="0.57599998" style="stroke-linecap:round" x1="41.400002" y2="37.799999" gorn="0.14.1.6" x2="43.200001"  stroke="#ffffff" id="line5797"/>
            <line y1="41.400002" stroke-width="0.57599998" style="stroke-linecap:round" x1="43.200001" y2="43.200001" gorn="0.14.1.7" x2="41.400002"  stroke="#ffffff" id="line5799"/>
            <line y1="43.200001" stroke-width="0.57599998" style="stroke-linecap:round" x1="41.400002" y2="43.200001" gorn="0.14.1.8" x2="37.799999"  stroke="#ffffff" id="line5801"/>
            <line y1="43.200001" stroke-width="0.57599998" style="stroke-linecap:round" x1="37.799999" y2="41.400002" gorn="0.14.1.9" x2="36"  stroke="#ffffff" id="line5803"/>
            <line y1="36" stroke-width="0.57599998" style="stroke-linecap:round" x1="45" y2="37.799999" gorn="0.14.1.10" x2="43.200001"  stroke="#ffffff" id="line5805"/>
            <line y1="41.400002" stroke-width="0.57599998" style="stroke-linecap:round" x1="43.200001" y2="43.200001" gorn="0.14.1.11" x2="45"  stroke="#ffffff" id="line5807"/>
            <line y1="43.200001" stroke-width="0.57599998" style="stroke-linecap:round" x1="48.599998" y2="43.200001" gorn="0.14.1.12" x2="45"  stroke="#ffffff" id="line5809"/>
            <line y1="36" stroke-width="0.57599998" style="stroke-linecap:round" x1="23.4" y2="36" gorn="0.14.1.13" x2="27"  stroke="#ffffff" id="line5811"/>
            <line y1="36" stroke-width="0.57599998" style="stroke-linecap:round" x1="27" y2="37.799999" gorn="0.14.1.14" x2="28.799999"  stroke="#ffffff" id="line5813"/>
            <line y1="41.400002" stroke-width="0.57599998" style="stroke-linecap:round" x1="28.799999" y2="43.200001" gorn="0.14.1.15" x2="27"  stroke="#ffffff" id="line5815"/>
            <line y1="37.799999" stroke-width="0.57599998" style="stroke-linecap:round" x1="28.799999" y2="36" gorn="0.14.1.16" x2="30.6"  stroke="#ffffff" id="line5817"/>
            <line y1="36" stroke-width="0.57599998" style="stroke-linecap:round" x1="30.6" y2="36" gorn="0.14.1.17" x2="34.200001"  stroke="#ffffff" id="line5819"/>
            <line y1="36" stroke-width="0.57599998" style="stroke-linecap:round" x1="34.200001" y2="37.799999" gorn="0.14.1.18" x2="36"  stroke="#ffffff" id="line5821"/>
            <line y1="41.400002" stroke-width="0.57599998" style="stroke-linecap:round" x1="36" y2="43.200001" gorn="0.14.1.19" x2="34.200001"  stroke="#ffffff" id="line5823"/>
            <line y1="43.200001" stroke-width="0.57599998" style="stroke-linecap:round" x1="34.200001" y2="43.200001" gorn="0.14.1.20" x2="30.6"  stroke="#ffffff" id="line5825"/>
            <line y1="43.200001" stroke-width="0.57599998" style="stroke-linecap:round" x1="30.6" y2="41.400002" gorn="0.14.1.21" x2="28.799999"  stroke="#ffffff" id="line5827"/>
            <line y1="37.799999" stroke-width="0.57599998" style="stroke-linecap:round" x1="14.4" y2="36" gorn="0.14.1.22" x2="16.200001"  stroke="#ffffff" id="line5829"/>
            <line y1="36" stroke-width="0.57599998" style="stroke-linecap:round" x1="16.200001" y2="36" gorn="0.14.1.23" x2="19.799999"  stroke="#ffffff" id="line5831"/>
            <line y1="36" stroke-width="0.57599998" style="stroke-linecap:round" x1="19.799999" y2="37.799999" gorn="0.14.1.24" x2="21.6"  stroke="#ffffff" id="line5833"/>
            <line y1="41.400002" stroke-width="0.57599998" style="stroke-linecap:round" x1="21.6" y2="43.200001" gorn="0.14.1.25" x2="19.799999"  stroke="#ffffff" id="line5835"/>
            <line y1="43.200001" stroke-width="0.57599998" style="stroke-linecap:round" x1="19.799999" y2="43.200001" gorn="0.14.1.26" x2="16.200001"  stroke="#ffffff" id="line5837"/>
            <line y1="43.200001" stroke-width="0.57599998" style="stroke-linecap:round" x1="16.200001" y2="41.400002" gorn="0.14.1.27" x2="14.4"  stroke="#ffffff" id="line5839"/>
            <line y1="36" stroke-width="0.57599998" style="stroke-linecap:round" x1="23.4" y2="37.799999" gorn="0.14.1.28" x2="21.6"  stroke="#ffffff" id="line5841"/>
            <line y1="41.400002" stroke-width="0.57599998" style="stroke-linecap:round" x1="21.6" y2="43.200001" gorn="0.14.1.29" x2="23.4"  stroke="#ffffff" id="line5843"/>
            <line y1="43.200001" stroke-width="0.57599998" style="stroke-linecap:round" x1="27" y2="43.200001" gorn="0.14.1.30" x2="23.4"  stroke="#ffffff" id="line5845"/>
            <line y1="36" stroke-width="0.57599998" style="stroke-linecap:round" x1="1.8" y2="36" gorn="0.14.1.31" x2="5.4000001"  stroke="#ffffff" id="line5847"/>
            <line y1="36" stroke-width="0.57599998" style="stroke-linecap:round" x1="5.4000001" y2="37.799999" gorn="0.14.1.32" x2="7.1999998"  stroke="#ffffff" id="line5849"/>
            <line y1="41.400002" stroke-width="0.57599998" style="stroke-linecap:round" x1="7.1999998" y2="43.200001" gorn="0.14.1.33" x2="5.4000001"  stroke="#ffffff" id="line5851"/>
            <line y1="37.799999" stroke-width="0.57599998" style="stroke-linecap:round" x1="7.1999998" y2="36" gorn="0.14.1.34" x2="9"  stroke="#ffffff" id="line5853"/>
            <line y1="36" stroke-width="0.57599998" style="stroke-linecap:round" x1="9" y2="36" gorn="0.14.1.35" x2="12.6"  stroke="#ffffff" id="line5855"/>
            <line y1="36" stroke-width="0.57599998" style="stroke-linecap:round" x1="12.6" y2="37.799999" gorn="0.14.1.36" x2="14.4"  stroke="#ffffff" id="line5857"/>
            <line y1="41.400002" stroke-width="0.57599998" style="stroke-linecap:round" x1="14.4" y2="43.200001" gorn="0.14.1.37" x2="12.6"  stroke="#ffffff" id="line5859"/>
            <line y1="43.200001" stroke-width="0.57599998" style="stroke-linecap:round" x1="12.6" y2="43.200001" gorn="0.14.1.38" x2="9"  stroke="#ffffff" id="line5861"/>
            <line y1="43.200001" stroke-width="0.57599998" style="stroke-linecap:round" x1="9" y2="41.400002" gorn="0.14.1.39" x2="7.1999998"  stroke="#ffffff" id="line5863"/>
            <line y1="37.799999" stroke-width="0.57599998" style="stroke-linecap:round" x1="0" y2="41.400002" gorn="0.14.1.40" x2="0"  stroke="#ffffff" id="line5865"/>
            <line y1="36" stroke-width="0.57599998" style="stroke-linecap:round" x1="1.8" y2="37.799999" gorn="0.14.1.41" x2="0"  stroke="#ffffff" id="line5867"/>
            <line y1="41.400002" stroke-width="0.57599998" style="stroke-linecap:round" x1="0" y2="43.200001" gorn="0.14.1.42" x2="1.8"  stroke="#ffffff" id="line5869"/>
            <line y1="43.200001" stroke-width="0.57599998" style="stroke-linecap:round" x1="5.4000001" y2="43.200001" gorn="0.14.1.43" x2="1.8"  stroke="#ffffff" id="line5871"/>
            <line y1="36" stroke-width="0.57599998" style="stroke-linecap:round" x1="52.200001" y2="36" gorn="0.14.1.44" x2="55.799999"  stroke="#ffffff" id="line5873"/>
            <line y1="36" stroke-width="0.57599998" style="stroke-linecap:round" x1="55.799999" y2="37.799999" gorn="0.14.1.45" x2="57.599998"  stroke="#ffffff" id="line5875"/>
            <line y1="37.799999" stroke-width="0.57599998" style="stroke-linecap:round" x1="57.599998" y2="41.400002" gorn="0.14.1.46" x2="57.599998"  stroke="#ffffff" id="line5877"/>
            <line y1="41.400002" stroke-width="0.57599998" style="stroke-linecap:round" x1="57.599998" y2="43.200001" gorn="0.14.1.47" x2="55.799999"  stroke="#ffffff" id="line5879"/>
            <line y1="36" stroke-width="0.57599998" style="stroke-linecap:round" x1="52.200001" y2="37.799999" gorn="0.14.1.48" x2="50.400002"  stroke="#ffffff" id="line5881"/>
            <line y1="41.400002" stroke-width="0.57599998" style="stroke-linecap:round" x1="50.400002" y2="43.200001" gorn="0.14.1.49" x2="52.200001"  stroke="#ffffff" id="line5883"/>
            <line y1="43.200001" stroke-width="0.57599998" style="stroke-linecap:round" x1="55.799999" y2="43.200001" gorn="0.14.1.50" x2="52.200001"  stroke="#ffffff" id="line5885"/>
        </g>
    </g>
    <g stroke-width="0" gorn="0.15"  id="g5887">
        <title  id="title5889">element:JP2</title>
        <g stroke-width="0" gorn="0.15.1"  id="g5891">
            <title  id="title5893">package:STAND-OFF</title>
        </g>
    </g>
    <g stroke-width="0" gorn="0.16"  id="g5895">
        <title  id="title5897">element:JP3</title>
        <g stroke-width="0" gorn="0.16.1"  id="g5899">
            <title  id="title5901">package:STAND-OFF</title>
        </g>
    </g>
    <g stroke-width="0" gorn="0.17"  id="g5903">
        <title  id="title5905">element:U$2</title>
        <g stroke-width="0" gorn="0.17.1"  id="g5907">
            <title  id="title5909">package:SFE-NEW-WEBLOGO</title>
        </g>
    </g>
    <circle r="2.052" cy="39.599998" stroke-width="1.22399998" fill="none" d="m 5.652,39.599998 c 0,1.133289 -0.9187118,2.052001 -2.0520001,2.052001 -1.1332883,0 -2.052,-0.918712 -2.052,-2.052001 0,-1.133288 0.9187117,-2.052 2.052,-2.052 1.1332883,0 2.0520001,0.918712 2.0520001,2.052 z" gorn="0.18"  connectorname="GND" stroke="#9a916c" cx="3.5999999" id="connector6pin"/>
    <rect stroke-width="1.22399998" x="1.548" fill="none" width="4.1040001" height="4.1040001" y="37.548" gorn="0.19"  stroke="#9a916c" id="rect5934"/>
    <circle r="2.052" cy="39.599998" stroke-width="1.22399998" fill="none" d="m 12.852,39.599998 c 0,1.133289 -0.918711,2.052001 -2.052,2.052001 -1.1332881,0 -2.0519999,-0.918712 -2.0519999,-2.052001 0,-1.133288 0.9187118,-2.052 2.0519999,-2.052 1.133289,0 2.052,0.918712 2.052,2.052 z" gorn="0.20"  connectorname="VCC" stroke="#9a916c" cx="10.8" id="connector7pin"/>
    <circle r="2.052" cy="39.599998" stroke-width="1.22399998" fill="none" d="m 20.052,39.599998 c 0,1.133289 -0.918712,2.052001 -2.052,2.052001 -1.133288,0 -2.052,-0.918712 -2.052,-2.052001 0,-1.133288 0.918712,-2.052 2.052,-2.052 1.133288,0 2.052,0.918712 2.052,2.052 z" gorn="0.21"  connectorname="CS" stroke="#9a916c" cx="18" id="connector8pin"/>
    <circle r="2.052" cy="39.599998" stroke-width="1.22399998" fill="none" d="m 27.252001,39.599998 c 0,1.133289 -0.918712,2.052001 -2.052,2.052001 -1.133289,0 -2.052,-0.918712 -2.052,-2.052001 0,-1.133288 0.918711,-2.052 2.052,-2.052 1.133288,0 2.052,0.918712 2.052,2.052 z" gorn="0.22"  connectorname="INT1" stroke="#9a916c" cx="25.200001" id="connector9pin"/>
    <circle r="2.052" cy="39.599998" stroke-width="1.22399998" fill="none" d="m 34.452002,39.599998 c 0,1.133289 -0.918712,2.052001 -2.052,2.052001 -1.133289,0 -2.052001,-0.918712 -2.052001,-2.052001 0,-1.133288 0.918712,-2.052 2.052001,-2.052 1.133288,0 2.052,0.918712 2.052,2.052 z" gorn="0.23"  connectorname="INT2" stroke="#9a916c" cx="32.400002" id="connector10pin"/>
    <circle r="2.052" cy="39.599998" stroke-width="1.22399998" fill="none" d="m 41.651999,39.599998 c 0,1.133289 -0.918712,2.052001 -2.052001,2.052001 -1.133288,0 -2.052,-0.918712 -2.052,-2.052001 0,-1.133288 0.918712,-2.052 2.052,-2.052 1.133289,0 2.052001,0.918712 2.052001,2.052 z" gorn="0.24"  connectorname="SDO" stroke="#9a916c" cx="39.599998" id="connector11pin"/>
    <circle r="2.052" cy="39.599998" stroke-width="1.22399998" fill="none" d="m 48.851999,39.599998 c 0,1.133289 -0.918711,2.052001 -2.052,2.052001 -1.133288,0 -2.052,-0.918712 -2.052,-2.052001 0,-1.133288 0.918712,-2.052 2.052,-2.052 1.133289,0 2.052,0.918712 2.052,2.052 z" gorn="0.25"  connectorname="SDA" stroke="#9a916c" cx="46.799999" id="connector12pin"/>
    <circle r="2.052" cy="39.599998" stroke-width="1.22399998" fill="none" d="m 56.052,39.599998 c 0,1.133289 -0.918712,2.052001 -2.052,2.052001 -1.133288,0 -2.052,-0.918712 -2.052,-2.052001 0,-1.133288 0.918712,-2.052 2.052,-2.052 1.133288,0 2.052,0.918712 2.052,2.052 z" gorn="0.26"  connectorname="SCL" stroke="#9a916c" cx="54" id="connector13pin"/>
</svg>
