<?xml version="1.0" encoding="UTF-8" standalone="no"?>
<!-- Generator: Adobe Illustrator 16.0.0, SVG Export Plug-In . SVG Version: 6.00 Build 0)  -->

<svg
   xmlns:dc="http://purl.org/dc/elements/1.1/"
   xmlns:cc="http://creativecommons.org/ns#"
   xmlns:rdf="http://www.w3.org/1999/02/22-rdf-syntax-ns#"
   xmlns:svg="http://www.w3.org/2000/svg"
   xmlns="http://www.w3.org/2000/svg"
   xmlns:sodipodi="http://sodipodi.sourceforge.net/DTD/sodipodi-0.dtd"
   xmlns:inkscape="http://www.inkscape.org/namespaces/inkscape"
   id="0"
   width="192.64212"
   height="190.53125"
   gorn="0"
   xml:space="preserve"
   version="1.2"
   y="0px"
   x="0px"
   viewBox="0 0 154.11413 152.42474"
   inkscape:version="0.48.4 r9939"
   sodipodi:docname="BL_SD_Card_Module.fzp_84c5675f0313dc7c2b18d98e97031d74_1_breadboard.svg"><metadata
   id="metadata94"><rdf:RDF><cc:Work
       rdf:about=""><dc:format>image/svg+xml</dc:format><dc:type
         rdf:resource="http://purl.org/dc/dcmitype/StillImage" /></cc:Work></rdf:RDF></metadata><defs
   id="defs92">
        
        
        
        
        
        
        
        
        
        
        
        
        
        
        
        
    </defs><sodipodi:namedview
   pagecolor="#ffffff"
   bordercolor="#666666"
   borderopacity="1"
   objecttolerance="10"
   gridtolerance="10"
   guidetolerance="10"
   inkscape:pageopacity="0"
   inkscape:pageshadow="2"
   inkscape:window-width="1366"
   inkscape:window-height="705"
   id="namedview90"
   showgrid="false"
   showguides="true"
   inkscape:guide-bbox="true"
   fit-margin-top="0"
   fit-margin-left="0"
   fit-margin-right="0"
   fit-margin-bottom="0"
   inkscape:zoom="1.8791652"
   inkscape:cx="64.25103"
   inkscape:cy="79.203778"
   inkscape:window-x="-8"
   inkscape:window-y="-8"
   inkscape:window-maximized="1"
   inkscape:current-layer="0"><sodipodi:guide
     orientation="0,1"
     position="36.71536,114.4177"
     id="guide3133" /><sodipodi:guide
     orientation="0,1"
     position="-163.90564,-38.309696"
     id="guide3135" /></sodipodi:namedview>
    <desc
   id="0.0">
        <referenceFile
   id="0.0.0">breadboard.svg</referenceFile>
    </desc>
    
    
    
    
    
    
<path
   inkscape:connector-curvature="0"
   style="fill:#e6e6e6;fill-opacity:1;stroke:none"
   d="M 82.688928,-3.1959375e-4 C 74.848418,-0.0030396 67.166452,3.4309941 59.588863,8.9497056 l -51.5001449,0 0,51.9501464 c -10.7849584,12.771668 -10.7849584,26.657931 0,41.700118 l 0,49.82514 146.0254119,0 0,-49.82514 c -14.4613,-18.366341 -10.37006,-30.809664 0,-41.275117 l 0,-52.3751474 -50.25014,0 C 96.647503,2.6812039 89.607027,0.00207801 82.688928,-3.1959375e-4 z M 143.8891,11.499713 c 3.52679,0 6.40002,2.87322 6.40002,6.400018 0,3.526798 -2.87323,6.375018 -6.40002,6.375018 -3.52679,0 -6.37502,-2.84822 -6.37502,-6.375018 0,-3.526798 2.84823,-6.400018 6.37502,-6.400018 z M 17.888746,11.924714 c 3.526794,0 6.375018,2.87322 6.375018,6.400018 0,3.526798 -2.848224,6.375018 -6.375018,6.375018 -3.526794,0 -6.400018,-2.84822 -6.400018,-6.375018 0,-3.526798 2.873224,-6.400018 6.400018,-6.400018 z M 143.8891,136.67506 c 3.52679,0 6.40002,2.84823 6.40002,6.37502 0,3.5268 -2.87323,6.40002 -6.40002,6.40002 -3.52679,0 -6.37502,-2.87322 -6.37502,-6.40002 0,-3.52679 2.84823,-6.37502 6.37502,-6.37502 z m -124.30035,0.85001 c 3.526794,0 6.375018,2.84822 6.375018,6.37502 0,3.52679 -2.848224,6.40001 -6.375018,6.40001 -3.526793,0 -6.400018,-2.87322 -6.400018,-6.40001 0,-3.5268 2.873225,-6.37502 6.400018,-6.37502 z"
   id="rect3130" /><rect
   style="fill:#c7c7c7;fill-opacity:1;stroke:#bfbfbf;stroke-width:1.60000455;stroke-linecap:square;stroke-linejoin:round;stroke-miterlimit:4;stroke-opacity:1;stroke-dasharray:none"
   id="rect3177"
   width="14.048831"
   height="6.8115549"
   x="14.472097"
   y="47.69331" /><rect
   style="fill:#b3b3b3;fill-opacity:1;stroke:none"
   id="rect3179"
   width="15.751719"
   height="7.6629987"
   x="13.194921"
   y="58.762089" /><rect
   style="fill:#000000;fill-opacity:1;stroke:#000000;stroke-width:1.60000455;stroke-linecap:square;stroke-linejoin:round;stroke-miterlimit:4;stroke-opacity:1;stroke-dasharray:none"
   id="rect3181"
   width="23.840441"
   height="14.048831"
   x="9.3634291"
   y="80.473915" /><rect
   style="fill:#b5854a;fill-opacity:1;stroke:none"
   id="rect3951"
   width="13.62311"
   height="6.8115549"
   x="17.452148"
   y="119.21463" /><rect
   style="fill:#b5854a;fill-opacity:1;stroke:none"
   id="rect3953"
   width="8.5144424"
   height="5.1086659"
   x="19.580755"
   y="108.9973" /><rect
   style="fill:#b3b3b3;fill-opacity:1;stroke:none"
   id="rect3955"
   width="7.237277"
   height="14.474554"
   x="49.381321"
   y="89.839798" /><rect
   style="fill:#b3b3b3;fill-opacity:1;stroke:none"
   id="rect3955-4"
   width="7.237277"
   height="14.474554"
   x="61.514393"
   y="89.839798" /><rect
   style="fill:#b3b3b3;fill-opacity:1;stroke:none"
   id="rect3955-4-0"
   width="7.237277"
   height="14.474554"
   x="73.434624"
   y="89.839798" /><rect
   style="fill:#b3b3b3;fill-opacity:1;stroke:none"
   id="rect3955-4-0-9"
   width="7.237277"
   height="14.474554"
   x="85.354836"
   y="89.839798" /><rect
   style="fill:#b3b3b3;fill-opacity:1;stroke:none"
   id="rect3955-4-0-9-4"
   width="7.237277"
   height="14.474554"
   x="98.126503"
   y="89.839798" /><rect
   style="fill:#b3b3b3;fill-opacity:1;stroke:none"
   id="rect3955-4-0-9-4-8"
   width="7.237277"
   height="14.474554"
   x="110.47245"
   y="89.839798" /><path
   style="fill:#b3b3b3;stroke:none;stroke-width:0.80000227999999995px;stroke-linecap:butt;stroke-linejoin:miter;stroke-opacity:1"
   d="m 30.649534,9.804036 101.747596,0 0,63.432602 -92.807427,0 0,-18.731775 -8.940169,-9.79161 z"
   id="path4047"
   inkscape:connector-curvature="0"
   sodipodi:nodetypes="ccccccc" /><g
   id="0.4"
   gorn="0.4"
   transform="matrix(1.2733466,0,0,1.2733466,30.06882,-31.506302)"
   style="fill:#000000">
        <g
   transform="matrix(0,-1,1,0,18.4187,123.8574)"
   id="g16"
   style="fill:#000000">
            <text
   id="0.4.0"
   font-size="4"
   gorn="0.4.0.0"
   style="font-size:4px;fill:#000000;font-family:OCRA">GND</text>

        </g>
        <g
   transform="matrix(0,-1,1,0,25.6189,123.8574)"
   id="g19"
   style="fill:#000000">
            <text
   id="0.4.1"
   font-size="4"
   gorn="0.4.1.0"
   style="font-size:4px;fill:#000000;font-family:OCRA">5V</text>

        </g>
        <g
   transform="matrix(0,-1,1,0,32.8181,123.8574)"
   id="g22"
   style="fill:#000000">
            <text
   id="0.4.2"
   font-size="4"
   gorn="0.4.2.0"
   style="font-size:4px;fill:#000000;font-family:OCRA">GND</text>

        </g>
        <g
   transform="matrix(0,-1,1,0,40.0183,123.8574)"
   id="g25"
   style="fill:#000000">
            <text
   id="0.4.3"
   font-size="4"
   gorn="0.4.3.0"
   style="font-size:4px;fill:#000000;font-family:OCRA">3.3V</text>

        </g>
        <g
   transform="matrix(0,-1,1,0,47.2185,123.8574)"
   id="g28"
   style="fill:#000000">
            <text
   id="0.4.4"
   font-size="4"
   gorn="0.4.4.0"
   style="font-size:4px;fill:#000000;font-family:OCRA">MISO</text>

        </g>
        <g
   transform="matrix(0,-1,1,0,54.4187,123.8574)"
   id="g31"
   style="fill:#000000">
            <text
   id="0.4.5"
   font-size="4"
   gorn="0.4.5.0"
   style="font-size:4px;fill:#000000;font-family:OCRA">SCK</text>

        </g>
        <g
   transform="matrix(0,-1,1,0,61.6179,123.8574)"
   id="g34"
   style="fill:#000000">
            <text
   id="0.4.6"
   font-size="4"
   gorn="0.4.6.0"
   style="font-size:4px;fill:#000000;font-family:OCRA">MOSI</text>

        </g>
        <g
   transform="matrix(0,-1,1,0,68.8181,123.8574)"
   id="g37"
   style="fill:#000000">
            <text
   id="0.4.7"
   font-size="4"
   gorn="0.4.7.0"
   style="font-size:4px;fill:#000000;font-family:OCRA">SCK</text>

        </g>
    </g><g
   gorn="0.6.8"
   id="0.6.8"
   transform="matrix(1.2733466,0,0,1.2733466,30.06882,-41.693103)">
            <circle
   style="fill:#95979a"
   sodipodi:ry="2.8340001"
   sodipodi:rx="2.8340001"
   sodipodi:cy="136.05701"
   sodipodi:cx="17.417999"
   r="2.8340001"
   cy="136.05701"
   gorn="0.6.8.0"
   id="0.6.8.0"
   cx="17.417999"
   d="m 20.251999,136.05701 c 0,1.56517 -1.268825,2.834 -2.834,2.834 -1.565175,0 -2.834,-1.26883 -2.834,-2.834 0,-1.56518 1.268825,-2.834 2.834,-2.834 1.565175,0 2.834,1.26882 2.834,2.834 z" />
            <circle
   style="fill:#ffffff"
   sodipodi:ry="1.4170001"
   sodipodi:rx="1.4170001"
   sodipodi:cy="136.058"
   sodipodi:cx="17.417999"
   r="1.4170001"
   cy="136.058"
   gorn="0.6.8.1"
   id="connector0pin"
   cx="17.417999"
   d="m 18.834999,136.058 c 0,0.78259 -0.634412,1.417 -1.417,1.417 -0.782587,0 -1.417,-0.63441 -1.417,-1.417 0,-0.78259 0.634413,-1.417 1.417,-1.417 0.782588,0 1.417,0.63441 1.417,1.417 z" />
        </g><g
   gorn="0.6.9"
   id="0.6.9"
   transform="matrix(1.2733466,0,0,1.2733466,30.06882,-41.693103)">
            <circle
   style="fill:#95979a"
   sodipodi:ry="2.8340001"
   sodipodi:rx="2.8340001"
   sodipodi:cy="136.05701"
   sodipodi:cx="24.618999"
   r="2.8340001"
   cy="136.05701"
   gorn="0.6.9.0"
   id="0.6.9.0"
   cx="24.618999"
   d="m 27.453,136.05701 c 0,1.56517 -1.268825,2.834 -2.834001,2.834 -1.565175,0 -2.834,-1.26883 -2.834,-2.834 0,-1.56518 1.268825,-2.834 2.834,-2.834 1.565176,0 2.834001,1.26882 2.834001,2.834 z" />
            <circle
   style="fill:#ffffff"
   sodipodi:ry="1.4170001"
   sodipodi:rx="1.4170001"
   sodipodi:cy="136.058"
   sodipodi:cx="24.618999"
   r="1.4170001"
   cy="136.058"
   gorn="0.6.9.1"
   id="connector1pin"
   cx="24.618999"
   d="m 26.036,136.058 c 0,0.78259 -0.634413,1.417 -1.417001,1.417 -0.782587,0 -1.417,-0.63441 -1.417,-1.417 0,-0.78259 0.634413,-1.417 1.417,-1.417 0.782588,0 1.417001,0.63441 1.417001,1.417 z" />
        </g><g
   gorn="0.6.10"
   id="0.6.10"
   transform="matrix(1.2733466,0,0,1.2733466,30.06882,-41.693103)">
            <circle
   style="fill:#95979a"
   sodipodi:ry="2.8340001"
   sodipodi:rx="2.8340001"
   sodipodi:cy="136.05701"
   sodipodi:cx="31.818001"
   r="2.8340001"
   cy="136.05701"
   gorn="0.6.10.0"
   id="0.6.10.0"
   cx="31.818001"
   d="m 34.652001,136.05701 c 0,1.56517 -1.268825,2.834 -2.834,2.834 -1.565175,0 -2.834,-1.26883 -2.834,-2.834 0,-1.56518 1.268825,-2.834 2.834,-2.834 1.565175,0 2.834,1.26882 2.834,2.834 z" />
            <circle
   style="fill:#ffffff"
   sodipodi:ry="1.4170001"
   sodipodi:rx="1.4170001"
   sodipodi:cy="136.058"
   sodipodi:cx="31.818001"
   r="1.4170001"
   cy="136.058"
   gorn="0.6.10.1"
   id="connector2pin"
   cx="31.818001"
   d="m 33.235001,136.058 c 0,0.78259 -0.634413,1.417 -1.417,1.417 -0.782588,0 -1.417,-0.63441 -1.417,-1.417 0,-0.78259 0.634412,-1.417 1.417,-1.417 0.782587,0 1.417,0.63441 1.417,1.417 z" />
        </g><g
   gorn="0.6.11"
   id="0.6.11"
   transform="matrix(1.2733466,0,0,1.2733466,30.06882,-41.693103)">
            <circle
   style="fill:#95979a"
   sodipodi:ry="2.8340001"
   sodipodi:rx="2.8340001"
   sodipodi:cy="136.05701"
   sodipodi:cx="39.018002"
   r="2.8340001"
   cy="136.05701"
   gorn="0.6.11.0"
   id="0.6.11.0"
   cx="39.018002"
   d="m 41.852002,136.05701 c 0,1.56517 -1.268825,2.834 -2.834,2.834 -1.565175,0 -2.834001,-1.26883 -2.834001,-2.834 0,-1.56518 1.268826,-2.834 2.834001,-2.834 1.565175,0 2.834,1.26882 2.834,2.834 z" />
            <circle
   style="fill:#ffffff"
   sodipodi:ry="1.4170001"
   sodipodi:rx="1.4170001"
   sodipodi:cy="136.058"
   sodipodi:cx="39.018002"
   r="1.4170001"
   cy="136.058"
   gorn="0.6.11.1"
   id="connector3pin"
   cx="39.018002"
   d="m 40.435002,136.058 c 0,0.78259 -0.634413,1.417 -1.417,1.417 -0.782588,0 -1.417,-0.63441 -1.417,-1.417 0,-0.78259 0.634412,-1.417 1.417,-1.417 0.782587,0 1.417,0.63441 1.417,1.417 z" />
        </g><g
   gorn="0.6.12"
   id="0.6.12"
   transform="matrix(1.2733466,0,0,1.2733466,30.06882,-41.693103)">
            <circle
   style="fill:#95979a"
   sodipodi:ry="2.8340001"
   sodipodi:rx="2.8340001"
   sodipodi:cy="136.05701"
   sodipodi:cx="46.217999"
   r="2.8340001"
   cy="136.05701"
   gorn="0.6.12.0"
   id="0.6.12.0"
   cx="46.217999"
   d="m 49.051999,136.05701 c 0,1.56517 -1.268825,2.834 -2.834,2.834 -1.565176,0 -2.834001,-1.26883 -2.834001,-2.834 0,-1.56518 1.268825,-2.834 2.834001,-2.834 1.565175,0 2.834,1.26882 2.834,2.834 z" />
            <circle
   style="fill:#ffffff"
   sodipodi:ry="1.4170001"
   sodipodi:rx="1.4170001"
   sodipodi:cy="136.058"
   sodipodi:cx="46.217999"
   r="1.4170001"
   cy="136.058"
   gorn="0.6.12.1"
   id="connector4pin"
   cx="46.217999"
   d="m 47.634999,136.058 c 0,0.78259 -0.634413,1.417 -1.417,1.417 -0.782588,0 -1.417001,-0.63441 -1.417001,-1.417 0,-0.78259 0.634413,-1.417 1.417001,-1.417 0.782587,0 1.417,0.63441 1.417,1.417 z" />
        </g><g
   gorn="0.6.13"
   id="0.6.13"
   transform="matrix(1.2733466,0,0,1.2733466,30.06882,-41.693103)">
            <circle
   style="fill:#95979a"
   sodipodi:ry="2.8340001"
   sodipodi:rx="2.8340001"
   sodipodi:cy="136.05701"
   sodipodi:cx="53.417999"
   r="2.8340001"
   cy="136.05701"
   gorn="0.6.13.0"
   id="0.6.13.0"
   cx="53.417999"
   d="m 56.251999,136.05701 c 0,1.56517 -1.268825,2.834 -2.834,2.834 -1.565175,0 -2.834,-1.26883 -2.834,-2.834 0,-1.56518 1.268825,-2.834 2.834,-2.834 1.565175,0 2.834,1.26882 2.834,2.834 z" />
            <circle
   style="fill:#ffffff"
   sodipodi:ry="1.4170001"
   sodipodi:rx="1.4170001"
   sodipodi:cy="136.058"
   sodipodi:cx="53.417999"
   r="1.4170001"
   cy="136.058"
   gorn="0.6.13.1"
   id="connector5pin"
   cx="53.417999"
   d="m 54.834999,136.058 c 0,0.78259 -0.634412,1.417 -1.417,1.417 -0.782587,0 -1.417,-0.63441 -1.417,-1.417 0,-0.78259 0.634413,-1.417 1.417,-1.417 0.782588,0 1.417,0.63441 1.417,1.417 z" />
        </g><g
   gorn="0.6.14"
   id="0.6.14"
   transform="matrix(1.2733466,0,0,1.2733466,30.06882,-41.693103)">
            <circle
   style="fill:#95979a"
   sodipodi:ry="2.8340001"
   sodipodi:rx="2.8340001"
   sodipodi:cy="136.05701"
   sodipodi:cx="60.618"
   r="2.8340001"
   cy="136.05701"
   gorn="0.6.14.0"
   id="0.6.14.0"
   cx="60.618"
   d="m 63.452,136.05701 c 0,1.56517 -1.268825,2.834 -2.834,2.834 -1.565175,0 -2.834,-1.26883 -2.834,-2.834 0,-1.56518 1.268825,-2.834 2.834,-2.834 1.565175,0 2.834,1.26882 2.834,2.834 z" />
            <circle
   style="fill:#ffffff"
   sodipodi:ry="1.4170001"
   sodipodi:rx="1.4170001"
   sodipodi:cy="136.058"
   sodipodi:cx="60.618"
   r="1.4170001"
   cy="136.058"
   gorn="0.6.14.1"
   id="connector6pin"
   cx="60.618"
   d="m 62.035,136.058 c 0,0.78259 -0.634412,1.417 -1.417,1.417 -0.782587,0 -1.417,-0.63441 -1.417,-1.417 0,-0.78259 0.634413,-1.417 1.417,-1.417 0.782588,0 1.417,0.63441 1.417,1.417 z" />
        </g><g
   gorn="0.6.15"
   id="0.6.15"
   transform="matrix(1.2733466,0,0,1.2733466,30.06882,-41.693103)">
            <circle
   style="fill:#95979a"
   sodipodi:ry="2.8340001"
   sodipodi:rx="2.8340001"
   sodipodi:cy="136.05701"
   sodipodi:cx="67.818001"
   r="2.8340001"
   cy="136.05701"
   gorn="0.6.15.0"
   id="0.6.15.0"
   cx="67.818001"
   d="m 70.652001,136.05701 c 0,1.56517 -1.268825,2.834 -2.834,2.834 -1.565175,0 -2.834,-1.26883 -2.834,-2.834 0,-1.56518 1.268825,-2.834 2.834,-2.834 1.565175,0 2.834,1.26882 2.834,2.834 z" />
            <circle
   style="fill:#ffffff"
   sodipodi:ry="1.4170001"
   sodipodi:rx="1.4170001"
   sodipodi:cy="136.058"
   sodipodi:cx="67.818001"
   r="1.4170001"
   cy="136.058"
   gorn="0.6.15.1"
   id="connector7pin"
   cx="67.818001"
   d="m 69.235001,136.058 c 0,0.78259 -0.634413,1.417 -1.417,1.417 -0.782588,0 -1.417,-0.63441 -1.417,-1.417 0,-0.78259 0.634412,-1.417 1.417,-1.417 0.782587,0 1.417,0.63441 1.417,1.417 z" />
        </g></svg>