<?xml version='1.0' encoding='UTF-8' standalone='no'?>
<!-- Generator: Adobe Illustrator 16.0.0, SVG Export Plug-In . SVG Version: 6.00 Build 0)  -->
<svg xmlns="http://www.w3.org/2000/svg" xmlns:xml="http://www.w3.org/XML/1998/namespace" id="0" width="192.64212" height="190.53125" gorn="0" xml:space="preserve" version="1.2" y="0px"  x="0px" viewBox="0 0 154.11413 152.42474">
    <metadata id="metadata94" >
        <rdf:RDF xmlns:rdf="http://www.w3.org/1999/02/22-rdf-syntax-ns#">
            <cc:Work xmlns:cc="http://creativecommons.org/ns#" xmlns:rdf="http://www.w3.org/1999/02/22-rdf-syntax-ns#" rdf:about="">
                <dc:format xmlns:dc="http://purl.org/dc/elements/1.1/">image/svg+xml</dc:format>
                <dc:type xmlns:dc="http://purl.org/dc/elements/1.1/" xmlns:rdf="http://www.w3.org/1999/02/22-rdf-syntax-ns#" rdf:resource="http://purl.org/dc/dcmitype/StillImage"/>
            </cc:Work>
        </rdf:RDF>
    </metadata>
    <defs id="defs92" />
    <desc id="0.0" >
        <referenceFile id="0.0.0" >breadboard.svg</referenceFile>
    </desc>
    <path d="M 82.688928,-3.1959375e-4 C 74.848418,-0.0030396 67.166452,3.4309941 59.588863,8.9497056 l -51.5001449,0 0,51.9501464 c -10.7849584,12.771668 -10.7849584,26.657931 0,41.700118 l 0,49.82514 146.0254119,0 0,-49.82514 c -14.4613,-18.366341 -10.37006,-30.809664 0,-41.275117 l 0,-52.3751474 -50.25014,0 C 96.647503,2.6812039 89.607027,0.00207801 82.688928,-3.1959375e-4 z M 143.8891,11.499713 c 3.52679,0 6.40002,2.87322 6.40002,6.400018 0,3.526798 -2.87323,6.375018 -6.40002,6.375018 -3.52679,0 -6.37502,-2.84822 -6.37502,-6.375018 0,-3.526798 2.84823,-6.400018 6.37502,-6.400018 z M 17.888746,11.924714 c 3.526794,0 6.375018,2.87322 6.375018,6.400018 0,3.526798 -2.848224,6.375018 -6.375018,6.375018 -3.526794,0 -6.400018,-2.84822 -6.400018,-6.375018 0,-3.526798 2.873224,-6.400018 6.400018,-6.400018 z M 143.8891,136.67506 c 3.52679,0 6.40002,2.84823 6.40002,6.37502 0,3.5268 -2.87323,6.40002 -6.40002,6.40002 -3.52679,0 -6.37502,-2.87322 -6.37502,-6.40002 0,-3.52679 2.84823,-6.37502 6.37502,-6.37502 z m -124.30035,0.85001 c 3.526794,0 6.375018,2.84822 6.375018,6.37502 0,3.52679 -2.848224,6.40001 -6.375018,6.40001 -3.526793,0 -6.400018,-2.87322 -6.400018,-6.40001 0,-3.5268 2.873225,-6.37502 6.400018,-6.37502 z" id="rect3130" fill="#e6e6e6" stroke="none" gorn="0.3"  fill-opacity="1"/>
    <rect stroke-width="1.60000455" id="rect3177" fill="#c7c7c7" width="14.048831" stroke="#bfbfbf" height="6.8115549" gorn="0.4" y="47.69331"  fill-opacity="1" stroke-opacity="1" x="14.472097" style="stroke-linecap:square;stroke-linejoin:round;stroke-miterlimit:4;stroke-dasharray:none"/>
    <rect id="rect3179" fill="#b3b3b3" width="15.751719" stroke="none" height="7.6629987" gorn="0.5" y="58.762089"  fill-opacity="1" x="13.194921"/>
    <rect stroke-width="1.60000455" id="rect3181" fill="#000000" width="23.840441" stroke="#000000" height="14.048831" gorn="0.6" y="80.473915"  fill-opacity="1" stroke-opacity="1" x="9.3634291" style="stroke-linecap:square;stroke-linejoin:round;stroke-miterlimit:4;stroke-dasharray:none"/>
    <rect id="rect3951" fill="#b5854a" width="13.62311" stroke="none" height="6.8115549" gorn="0.7" y="119.21463"  fill-opacity="1" x="17.452148"/>
    <rect id="rect3953" fill="#b5854a" width="8.5144424" stroke="none" height="5.1086659" gorn="0.8" y="108.9973"  fill-opacity="1" x="19.580755"/>
    <rect id="rect3955" fill="#b3b3b3" width="7.237277" stroke="none" height="14.474554" gorn="0.9" y="89.839798"  fill-opacity="1" x="49.381321"/>
    <rect id="rect3955-4" fill="#b3b3b3" width="7.237277" stroke="none" height="14.474554" gorn="0.10" y="89.839798"  fill-opacity="1" x="61.514393"/>
    <rect id="rect3955-4-0" fill="#b3b3b3" width="7.237277" stroke="none" height="14.474554" gorn="0.11" y="89.839798"  fill-opacity="1" x="73.434624"/>
    <rect id="rect3955-4-0-9" fill="#b3b3b3" width="7.237277" stroke="none" height="14.474554" gorn="0.12" y="89.839798"  fill-opacity="1" x="85.354836"/>
    <rect id="rect3955-4-0-9-4" fill="#b3b3b3" width="7.237277" stroke="none" height="14.474554" gorn="0.13" y="89.839798"  fill-opacity="1" x="98.126503"/>
    <rect id="rect3955-4-0-9-4-8" fill="#b3b3b3" width="7.237277" stroke="none" height="14.474554" gorn="0.14" y="89.839798"  fill-opacity="1" x="110.47245"/>
    <path stroke-width="0.640004" d="m 30.649534,9.804036 101.747596,0 0,63.432602 -92.807427,0 0,-18.731775 -8.940169,-9.79161 z" id="path4047" fill="#b3b3b3" stroke="none" gorn="0.15"  stroke-opacity="1" style="stroke-linecap:butt;stroke-linejoin:miter;"/>
    <g transform="matrix(1.2733466,0,0,1.2733466,30.06882,-31.506302)" >
        <g >
            <g id="0.4" gorn="0.16.0.0"  style="fill:#000000">
                <g transform="matrix(0,-1,1,0,18.4187,123.8574)" >
                    <g >
                        <g id="g16" gorn="0.16.0.0.0.0.0"  style="fill:#000000">
                            <text id="0.4.0" font-size="4" gorn="0.16.0.0.0.0.0.0"  style="font-size:4px;fill:#000000;font-family:OCRA">GND</text>
                        </g>
                    </g>
                </g>
                <g transform="matrix(0,-1,1,0,25.6189,123.8574)" >
                    <g >
                        <g id="g19" gorn="0.16.0.0.1.0.0"  style="fill:#000000">
                            <text id="0.4.1" font-size="4" gorn="0.16.0.0.1.0.0.0"  style="font-size:4px;fill:#000000;font-family:OCRA">5V</text>
                        </g>
                    </g>
                </g>
                <g transform="matrix(0,-1,1,0,32.8181,123.8574)" >
                    <g >
                        <g id="g22" gorn="0.16.0.0.2.0.0"  style="fill:#000000">
                            <text id="0.4.2" font-size="4" gorn="0.16.0.0.2.0.0.0"  style="font-size:4px;fill:#000000;font-family:OCRA">GND</text>
                        </g>
                    </g>
                </g>
                <g transform="matrix(0,-1,1,0,40.0183,123.8574)" >
                    <g >
                        <g id="g25" gorn="0.16.0.0.3.0.0"  style="fill:#000000">
                            <text id="0.4.3" font-size="4" gorn="0.16.0.0.3.0.0.0"  style="font-size:4px;fill:#000000;font-family:OCRA">3.3V</text>
                        </g>
                    </g>
                </g>
                <g transform="matrix(0,-1,1,0,47.2185,123.8574)" >
                    <g >
                        <g id="g28" gorn="0.16.0.0.4.0.0"  style="fill:#000000">
                            <text id="0.4.4" font-size="4" gorn="0.16.0.0.4.0.0.0"  style="font-size:4px;fill:#000000;font-family:OCRA">MISO</text>
                        </g>
                    </g>
                </g>
                <g transform="matrix(0,-1,1,0,54.4187,123.8574)" >
                    <g >
                        <g id="g31" gorn="0.16.0.0.5.0.0"  style="fill:#000000">
                            <text id="0.4.5" font-size="4" gorn="0.16.0.0.5.0.0.0"  style="font-size:4px;fill:#000000;font-family:OCRA">SCK</text>
                        </g>
                    </g>
                </g>
                <g transform="matrix(0,-1,1,0,61.6179,123.8574)" >
                    <g >
                        <g id="g34" gorn="0.16.0.0.6.0.0"  style="fill:#000000">
                            <text id="0.4.6" font-size="4" gorn="0.16.0.0.6.0.0.0"  style="font-size:4px;fill:#000000;font-family:OCRA">MOSI</text>
                        </g>
                    </g>
                </g>
                <g transform="matrix(0,-1,1,0,68.8181,123.8574)" >
                    <g >
                        <g id="g37" gorn="0.16.0.0.7.0.0"  style="fill:#000000">
                            <text id="0.4.7" font-size="4" gorn="0.16.0.0.7.0.0.0"  style="font-size:4px;fill:#000000;font-family:OCRA">SCK</text>
                        </g>
                    </g>
                </g>
            </g>
        </g>
    </g>
    <g transform="matrix(1.2733466,0,0,1.2733466,30.06882,-41.693103)" >
        <g >
            <g id="0.6.8" gorn="0.17.0.0" >
                <circle cx="17.417999" id="0.6.8.0" d="m 20.251999,136.05701 c 0,1.56517 -1.268825,2.834 -2.834,2.834 -1.565175,0 -2.834,-1.26883 -2.834,-2.834 0,-1.56518 1.268825,-2.834 2.834,-2.834 1.565175,0 2.834,1.26882 2.834,2.834 z" gorn="0.17.0.0.0"  cy="136.05701" style="fill:#95979a" r="2.8340001"/>
                <circle cx="17.417999" id="connector0pin" d="m 18.834999,136.058 c 0,0.78259 -0.634412,1.417 -1.417,1.417 -0.782587,0 -1.417,-0.63441 -1.417,-1.417 0,-0.78259 0.634413,-1.417 1.417,-1.417 0.782588,0 1.417,0.63441 1.417,1.417 z" gorn="0.17.0.0.1"  cy="136.058" style="fill:#ffffff" r="1.4170001"/>
            </g>
        </g>
    </g>
    <g transform="matrix(1.2733466,0,0,1.2733466,30.06882,-41.693103)" >
        <g >
            <g id="0.6.9" gorn="0.18.0.0" >
                <circle cx="24.618999" id="0.6.9.0" d="m 27.453,136.05701 c 0,1.56517 -1.268825,2.834 -2.834001,2.834 -1.565175,0 -2.834,-1.26883 -2.834,-2.834 0,-1.56518 1.268825,-2.834 2.834,-2.834 1.565176,0 2.834001,1.26882 2.834001,2.834 z" gorn="0.18.0.0.0"  cy="136.05701" style="fill:#95979a" r="2.8340001"/>
                <circle cx="24.618999" id="connector1pin" d="m 26.036,136.058 c 0,0.78259 -0.634413,1.417 -1.417001,1.417 -0.782587,0 -1.417,-0.63441 -1.417,-1.417 0,-0.78259 0.634413,-1.417 1.417,-1.417 0.782588,0 1.417001,0.63441 1.417001,1.417 z" gorn="0.18.0.0.1"  cy="136.058" style="fill:#ffffff" r="1.4170001"/>
            </g>
        </g>
    </g>
    <g transform="matrix(1.2733466,0,0,1.2733466,30.06882,-41.693103)" >
        <g >
            <g id="0.6.10" gorn="0.19.0.0" >
                <circle cx="31.818001" id="0.6.10.0" d="m 34.652001,136.05701 c 0,1.56517 -1.268825,2.834 -2.834,2.834 -1.565175,0 -2.834,-1.26883 -2.834,-2.834 0,-1.56518 1.268825,-2.834 2.834,-2.834 1.565175,0 2.834,1.26882 2.834,2.834 z" gorn="0.19.0.0.0"  cy="136.05701" style="fill:#95979a" r="2.8340001"/>
                <circle cx="31.818001" id="connector2pin" d="m 33.235001,136.058 c 0,0.78259 -0.634413,1.417 -1.417,1.417 -0.782588,0 -1.417,-0.63441 -1.417,-1.417 0,-0.78259 0.634412,-1.417 1.417,-1.417 0.782587,0 1.417,0.63441 1.417,1.417 z" gorn="0.19.0.0.1"  cy="136.058" style="fill:#ffffff" r="1.4170001"/>
            </g>
        </g>
    </g>
    <g transform="matrix(1.2733466,0,0,1.2733466,30.06882,-41.693103)" >
        <g >
            <g id="0.6.11" gorn="0.20.0.0" >
                <circle cx="39.018002" id="0.6.11.0" d="m 41.852002,136.05701 c 0,1.56517 -1.268825,2.834 -2.834,2.834 -1.565175,0 -2.834001,-1.26883 -2.834001,-2.834 0,-1.56518 1.268826,-2.834 2.834001,-2.834 1.565175,0 2.834,1.26882 2.834,2.834 z" gorn="0.20.0.0.0"  cy="136.05701" style="fill:#95979a" r="2.8340001"/>
                <circle cx="39.018002" id="connector3pin" d="m 40.435002,136.058 c 0,0.78259 -0.634413,1.417 -1.417,1.417 -0.782588,0 -1.417,-0.63441 -1.417,-1.417 0,-0.78259 0.634412,-1.417 1.417,-1.417 0.782587,0 1.417,0.63441 1.417,1.417 z" gorn="0.20.0.0.1"  cy="136.058" style="fill:#ffffff" r="1.4170001"/>
            </g>
        </g>
    </g>
    <g transform="matrix(1.2733466,0,0,1.2733466,30.06882,-41.693103)" >
        <g >
            <g id="0.6.12" gorn="0.21.0.0" >
                <circle cx="46.217999" id="0.6.12.0" d="m 49.051999,136.05701 c 0,1.56517 -1.268825,2.834 -2.834,2.834 -1.565176,0 -2.834001,-1.26883 -2.834001,-2.834 0,-1.56518 1.268825,-2.834 2.834001,-2.834 1.565175,0 2.834,1.26882 2.834,2.834 z" gorn="0.21.0.0.0"  cy="136.05701" style="fill:#95979a" r="2.8340001"/>
                <circle cx="46.217999" id="connector4pin" d="m 47.634999,136.058 c 0,0.78259 -0.634413,1.417 -1.417,1.417 -0.782588,0 -1.417001,-0.63441 -1.417001,-1.417 0,-0.78259 0.634413,-1.417 1.417001,-1.417 0.782587,0 1.417,0.63441 1.417,1.417 z" gorn="0.21.0.0.1"  cy="136.058" style="fill:#ffffff" r="1.4170001"/>
            </g>
        </g>
    </g>
    <g transform="matrix(1.2733466,0,0,1.2733466,30.06882,-41.693103)" >
        <g >
            <g id="0.6.13" gorn="0.22.0.0" >
                <circle cx="53.417999" id="0.6.13.0" d="m 56.251999,136.05701 c 0,1.56517 -1.268825,2.834 -2.834,2.834 -1.565175,0 -2.834,-1.26883 -2.834,-2.834 0,-1.56518 1.268825,-2.834 2.834,-2.834 1.565175,0 2.834,1.26882 2.834,2.834 z" gorn="0.22.0.0.0"  cy="136.05701" style="fill:#95979a" r="2.8340001"/>
                <circle cx="53.417999" id="connector5pin" d="m 54.834999,136.058 c 0,0.78259 -0.634412,1.417 -1.417,1.417 -0.782587,0 -1.417,-0.63441 -1.417,-1.417 0,-0.78259 0.634413,-1.417 1.417,-1.417 0.782588,0 1.417,0.63441 1.417,1.417 z" gorn="0.22.0.0.1"  cy="136.058" style="fill:#ffffff" r="1.4170001"/>
            </g>
        </g>
    </g>
    <g transform="matrix(1.2733466,0,0,1.2733466,30.06882,-41.693103)" >
        <g >
            <g id="0.6.14" gorn="0.23.0.0" >
                <circle cx="60.618" id="0.6.14.0" d="m 63.452,136.05701 c 0,1.56517 -1.268825,2.834 -2.834,2.834 -1.565175,0 -2.834,-1.26883 -2.834,-2.834 0,-1.56518 1.268825,-2.834 2.834,-2.834 1.565175,0 2.834,1.26882 2.834,2.834 z" gorn="0.23.0.0.0"  cy="136.05701" style="fill:#95979a" r="2.8340001"/>
                <circle cx="60.618" id="connector6pin" d="m 62.035,136.058 c 0,0.78259 -0.634412,1.417 -1.417,1.417 -0.782587,0 -1.417,-0.63441 -1.417,-1.417 0,-0.78259 0.634413,-1.417 1.417,-1.417 0.782588,0 1.417,0.63441 1.417,1.417 z" gorn="0.23.0.0.1"  cy="136.058" style="fill:#ffffff" r="1.4170001"/>
            </g>
        </g>
    </g>
    <g transform="matrix(1.2733466,0,0,1.2733466,30.06882,-41.693103)" >
        <g >
            <g id="0.6.15" gorn="0.24.0.0" >
                <circle cx="67.818001" id="0.6.15.0" d="m 70.652001,136.05701 c 0,1.56517 -1.268825,2.834 -2.834,2.834 -1.565175,0 -2.834,-1.26883 -2.834,-2.834 0,-1.56518 1.268825,-2.834 2.834,-2.834 1.565175,0 2.834,1.26882 2.834,2.834 z" gorn="0.24.0.0.0"  cy="136.05701" style="fill:#95979a" r="2.8340001"/>
                <circle cx="67.818001" id="connector7pin" d="m 69.235001,136.058 c 0,0.78259 -0.634413,1.417 -1.417,1.417 -0.782588,0 -1.417,-0.63441 -1.417,-1.417 0,-0.78259 0.634412,-1.417 1.417,-1.417 0.782587,0 1.417,0.63441 1.417,1.417 z" gorn="0.24.0.0.1"  cy="136.058" style="fill:#ffffff" r="1.4170001"/>
            </g>
        </g>
    </g>
</svg>
