<?xml version='1.0' encoding='UTF-8' standalone='no'?>
<!-- Created with Fritzing (http://www.fritzing.org/) -->
<svg xmlns="http://www.w3.org/2000/svg" id="svg5573" version="1.2" width="0.8in" x="0in"  y="0in" height="0.6in" gorn="0" viewBox="0 0 57.6 43.2">
    <metadata id="metadata5947" >
        <rdf:RDF xmlns:rdf="http://www.w3.org/1999/02/22-rdf-syntax-ns#">
            <cc:Work xmlns:cc="http://creativecommons.org/ns#" rdf:about="" xmlns:rdf="http://www.w3.org/1999/02/22-rdf-syntax-ns#">
                <dc:format xmlns:dc="http://purl.org/dc/elements/1.1/">image/svg+xml</dc:format>
                <dc:type rdf:resource="http://purl.org/dc/dcmitype/StillImage" xmlns:rdf="http://www.w3.org/1999/02/22-rdf-syntax-ns#" xmlns:dc="http://purl.org/dc/elements/1.1/"/>
                <dc:title xmlns:dc="http://purl.org/dc/elements/1.1/"/>
            </cc:Work>
        </rdf:RDF>
    </metadata>
    <defs id="defs5945" />
    <desc id="desc5575" >
        <referenceFile id="referenceFile5577" >ADXL345-BreakoutBoard-v13_breadboard.svg</referenceFile>
    </desc>
    <desc id="desc5579" >Fritzing breadboard generated by brd2svg</desc>
    <path id="path5583" fill-opacity="1"  fill="#606e90" gorn="0.4" d="m 0.2013986,42.998601 57.6000004,0 0,-43.1999996 -57.6000004,0 0,43.1999996 m 2.52,-35.9999996 c 0,-2.4504424 2.2295579,-4.6799982 4.6800002,-4.6799982 2.4504423,0 4.6800002,2.2295558 4.6800002,4.6799982 0,2.4504424 -2.2295579,4.6799986 -4.6800002,4.6799986 -2.4504423,0 -4.6800002,-2.2295562 -4.6800002,-4.6799986 z m -0.36,32.3999996 c 0,-0.753982 0.6860178,-1.439999 1.44,-1.439999 0.7539822,0 1.44,0.686017 1.44,1.439999 0,0.753982 -0.6860178,1.439999 -1.44,1.439999 -0.7539822,0 -1.44,-0.686017 -1.44,-1.439999 z m 7.2,0 c 0,-0.753982 0.6860174,-1.44 1.4400004,-1.44 0.753982,0 1.44,0.686018 1.44,1.44 0,0.753982 -0.686018,1.44 -1.44,1.44 -0.753983,0 -1.4400004,-0.686018 -1.4400004,-1.44 z m 7.2000004,0 c 0,-0.753982 0.686018,-1.439999 1.44,-1.439999 0.753982,0 1.44,0.686017 1.44,1.439999 0,0.753982 -0.686018,1.439999 -1.44,1.439999 -0.753982,0 -1.44,-0.686017 -1.44,-1.439999 z m 7.2,0 c 0,-0.753982 0.686018,-1.439999 1.44,-1.439999 0.753982,0 1.44,0.686017 1.44,1.439999 0,0.753982 -0.686018,1.439999 -1.44,1.439999 -0.753982,0 -1.44,-0.686017 -1.44,-1.439999 z m 7.2,0 c 0,-0.753982 0.686018,-1.439999 1.44,-1.439999 0.753982,0 1.44,0.686017 1.44,1.439999 0,0.753982 -0.686018,1.439999 -1.44,1.439999 -0.753982,0 -1.44,-0.686017 -1.44,-1.439999 z m 7.2,0 c 0,-0.753982 0.686018,-1.439999 1.44,-1.439999 0.753982,0 1.44,0.686017 1.44,1.439999 0,0.753982 -0.686018,1.439999 -1.44,1.439999 -0.753982,0 -1.44,-0.686017 -1.44,-1.439999 z m 7.2,0 c 0,-0.753982 0.686018,-1.439999 1.44,-1.439999 0.753982,0 1.44,0.686017 1.44,1.439999 0,0.753982 -0.686018,1.439999 -1.44,1.439999 -0.753982,0 -1.44,-0.686017 -1.44,-1.439999 z m 7.2,0 c 0,-0.753982 0.686018,-1.439999 1.44,-1.439999 0.753982,0 1.44,0.686017 1.44,1.439999 0,0.753982 -0.686018,1.439999 -1.44,1.439999 -0.753982,0 -1.44,-0.686017 -1.44,-1.439999 z" stroke="none"/>
    <g  transform="matrix(0.6508519,0,0,0.6508519,-8.8052084,-26.991477)">
        <g >
            <g >
                <g id="g7350"  gorn="0.5.0.0.0">
                    <g  transform="matrix(0.8,0,0,0.8,0,-1.5258789e-6)">
                        <g >
                            <g >
                                <rect style="stroke-linecap:square;stroke-linejoin:round;stroke-miterlimit:4;stroke-dasharray:none" id="rect7308" width="21.650351" fill-opacity="1" x="98.685318"  fill="#000000" y="61.552452" stroke-opacity="1" height="21.650351" gorn="0.5.0.0.0.0.0.0.0" stroke-width="2" stroke="#000000"/>
                            </g>
                        </g>
                    </g>
                    <g  transform="matrix(0.8,0,0,0.8,0,-1.5258789e-6)">
                        <g >
                            <g >
                                <rect style="stroke-linecap:square;stroke-linejoin:round;stroke-miterlimit:4;stroke-dasharray:none" id="rect7310" width="21.650351" fill-opacity="1" x="98.685318"  fill="#000000" y="61.552452" stroke-opacity="1" height="21.650351" gorn="0.5.0.0.0.1.0.0.0" stroke-width="2" stroke="#000000"/>
                            </g>
                        </g>
                    </g>
                    <rect style="stroke-linecap:square;stroke-linejoin:round;stroke-miterlimit:4;stroke-dasharray:none" id="rect7312" width="12.984208" fill-opacity="1" x="48.892517"  fill="#000000" y="68.327477" stroke-opacity="1" height="10.970222" gorn="0.5.0.0.0.2" stroke-width="1.10250485" stroke="#000000"/>
                    <rect style="stroke-linecap:square;stroke-linejoin:round;stroke-miterlimit:4;stroke-dasharray:none" id="rect7312-1" width="11.632317" fill-opacity="1" x="18.317888"  fill="#000000" y="83.067543" stroke-opacity="1" height="6.0607233" gorn="0.5.0.0.0.3" stroke-width="0.77564031" stroke="#000000"/>
                    <rect style="stroke-linecap:square;stroke-linejoin:round;stroke-miterlimit:4;stroke-dasharray:none" id="rect7312-7" width="12.829355" fill-opacity="1" x="78.172737"  fill="#c7c7c7" y="76.058052" stroke-opacity="1" height="14.440543" gorn="0.5.0.0.0.4" stroke-width="1.25735879" stroke="#bfbfbf"/>
                </g>
            </g>
        </g>
    </g>
    <g id="g5605"  gorn="0.6" stroke-width="0">
        <title id="title5607" >text:VCC</title>
        <g  transform="translate(12.6,34.92)">
            <g >
                <g >
                    <g id="g5609"  gorn="0.6.1.0.0.0">
                        <g id="g5611"  gorn="0.6.1.0.0.0.0" stroke-width="0">
                            <g  transform="matrix(0,-1,1,0,0,0)">
                                <g >
                                    <g >
                                        <g id="g5613"  gorn="0.6.1.0.0.0.0.0.0.0.0">
                                            <g id="g5615"  gorn="0.6.1.0.0.0.0.0.0.0.0.0" stroke-width="0">
                                                <text style="text-anchor:start;font-family:OCRA" id="text5617" x="0"  fill="#ffffff" y="0" gorn="0.6.1.0.0.0.0.0.0.0.0.0.0" font-size="3.3408" stroke="none">3V3</text>
                                            </g>
                                        </g>
                                    </g>
                                </g>
                            </g>
                        </g>
                    </g>
                </g>
            </g>
        </g>
    </g>
    <g id="g5619"  gorn="0.7" stroke-width="0">
        <title id="title5621" >text:GND</title>
        <g  transform="translate(5.4,34.92)">
            <g >
                <g >
                    <g id="g5623"  gorn="0.7.1.0.0.0">
                        <g id="g5625"  gorn="0.7.1.0.0.0.0" stroke-width="0">
                            <g  transform="matrix(0,-1,1,0,0,0)">
                                <g >
                                    <g >
                                        <g id="g5627"  gorn="0.7.1.0.0.0.0.0.0.0.0">
                                            <g id="g5629"  gorn="0.7.1.0.0.0.0.0.0.0.0.0" stroke-width="0">
                                                <text style="text-anchor:start;font-family:OCRA" id="text5631" x="0"  fill="#ffffff" y="0" gorn="0.7.1.0.0.0.0.0.0.0.0.0.0" font-size="3.3408" stroke="none">VIN</text>
                                            </g>
                                        </g>
                                    </g>
                                </g>
                            </g>
                        </g>
                    </g>
                </g>
            </g>
        </g>
    </g>
    <g id="g5633"  gorn="0.8" stroke-width="0">
        <title id="title5635" >text:CS</title>
        <g  transform="translate(19.8,34.92)">
            <g >
                <g >
                    <g id="g5637"  gorn="0.8.1.0.0.0">
                        <g id="g5639"  gorn="0.8.1.0.0.0.0" stroke-width="0">
                            <g  transform="matrix(0,-1,1,0,0,0)">
                                <g >
                                    <g >
                                        <g id="g5641"  gorn="0.8.1.0.0.0.0.0.0.0.0">
                                            <g id="g5643"  gorn="0.8.1.0.0.0.0.0.0.0.0.0" stroke-width="0">
                                                <text style="text-anchor:start;font-family:OCRA" id="text5645" x="0"  fill="#ffffff" y="0" gorn="0.8.1.0.0.0.0.0.0.0.0.0.0" font-size="3.3408" stroke="none">GND</text>
                                            </g>
                                        </g>
                                    </g>
                                </g>
                            </g>
                        </g>
                    </g>
                </g>
            </g>
        </g>
    </g>
    <g id="g5647"  gorn="0.9" stroke-width="0">
        <title id="title5649" >text:SDO</title>
        <g  transform="translate(41.4,34.92)">
            <g >
                <g >
                    <g id="g5651"  gorn="0.9.1.0.0.0">
                        <g id="g5653"  gorn="0.9.1.0.0.0.0" stroke-width="0">
                            <g  transform="matrix(0,-1,1,0,0,0)">
                                <g >
                                    <g >
                                        <g id="g5655"  gorn="0.9.1.0.0.0.0.0.0.0.0">
                                            <g id="g5657"  gorn="0.9.1.0.0.0.0.0.0.0.0.0" stroke-width="0">
                                                <text style="text-anchor:start;font-family:OCRA" id="text5659" x="0"  fill="#ffffff" y="0" gorn="0.9.1.0.0.0.0.0.0.0.0.0.0" font-size="3.3408" stroke="none">SDO</text>
                                            </g>
                                        </g>
                                    </g>
                                </g>
                            </g>
                        </g>
                    </g>
                </g>
            </g>
        </g>
    </g>
    <g id="g5661"  gorn="0.10" stroke-width="0">
        <title id="title5663" >text:SDA</title>
        <g  transform="translate(48.6,34.92)">
            <g >
                <g >
                    <g id="g5665"  gorn="0.10.1.0.0.0">
                        <g id="g5667"  gorn="0.10.1.0.0.0.0" stroke-width="0">
                            <g  transform="matrix(0,-1,1,0,0,0)">
                                <g >
                                    <g >
                                        <g id="g5669"  gorn="0.10.1.0.0.0.0.0.0.0.0">
                                            <g id="g5671"  gorn="0.10.1.0.0.0.0.0.0.0.0.0" stroke-width="0">
                                                <text style="text-anchor:start;font-family:OCRA" id="text5673" x="0"  fill="#ffffff" y="0" gorn="0.10.1.0.0.0.0.0.0.0.0.0.0" font-size="3.3408" stroke="none">CS1</text>
                                            </g>
                                        </g>
                                    </g>
                                </g>
                            </g>
                        </g>
                    </g>
                </g>
            </g>
        </g>
    </g>
    <g id="g5675"  gorn="0.11" stroke-width="0">
        <title id="title5677" >text:SCL</title>
        <g  transform="translate(55.8,34.92)">
            <g >
                <g >
                    <g id="g5679"  gorn="0.11.1.0.0.0">
                        <g id="g5681"  gorn="0.11.1.0.0.0.0" stroke-width="0">
                            <g  transform="matrix(0,-1,1,0,0,0)">
                                <g >
                                    <g >
                                        <g id="g5683"  gorn="0.11.1.0.0.0.0.0.0.0.0">
                                            <g id="g5685"  gorn="0.11.1.0.0.0.0.0.0.0.0.0" stroke-width="0">
                                                <text style="text-anchor:start;font-family:OCRA" id="text5687" x="0"  fill="#ffffff" y="0" gorn="0.11.1.0.0.0.0.0.0.0.0.0.0" font-size="3.3408" stroke="none">CS2</text>
                                            </g>
                                        </g>
                                    </g>
                                </g>
                            </g>
                        </g>
                    </g>
                </g>
            </g>
        </g>
    </g>
    <g id="g5689"  gorn="0.12" stroke-width="0">
        <title id="title5691" >text:INT1</title>
        <g  transform="translate(27,34.92)">
            <g >
                <g >
                    <g id="g5693"  gorn="0.12.1.0.0.0">
                        <g id="g5695"  gorn="0.12.1.0.0.0.0" stroke-width="0">
                            <g  transform="matrix(0,-1,1,0,0,0)">
                                <g >
                                    <g >
                                        <g id="g5697"  gorn="0.12.1.0.0.0.0.0.0.0.0">
                                            <g id="g5699"  gorn="0.12.1.0.0.0.0.0.0.0.0.0" stroke-width="0">
                                                <text style="text-anchor:start;font-family:OCRA" id="text5701" x="0"  fill="#ffffff" y="0" gorn="0.12.1.0.0.0.0.0.0.0.0.0.0" font-size="3.3408" stroke="none">SCL</text>
                                            </g>
                                        </g>
                                    </g>
                                </g>
                            </g>
                        </g>
                    </g>
                </g>
            </g>
        </g>
    </g>
    <g id="g5703"  gorn="0.13" stroke-width="0">
        <title id="title5705" >text:INT2</title>
        <g  transform="translate(34.2,34.92)">
            <g >
                <g >
                    <g id="g5707"  gorn="0.13.1.0.0.0">
                        <g id="g5709"  gorn="0.13.1.0.0.0.0" stroke-width="0">
                            <g  transform="matrix(0,-1,1,0,0,0)">
                                <g >
                                    <g >
                                        <g id="g5711"  gorn="0.13.1.0.0.0.0.0.0.0.0">
                                            <g id="g5713"  gorn="0.13.1.0.0.0.0.0.0.0.0.0" stroke-width="0">
                                                <text style="text-anchor:start;font-family:OCRA" id="text5715" x="0"  fill="#ffffff" y="0" gorn="0.13.1.0.0.0.0.0.0.0.0.0.0" font-size="3.3408" stroke="none">SDA</text>
                                            </g>
                                        </g>
                                    </g>
                                </g>
                            </g>
                        </g>
                    </g>
                </g>
            </g>
        </g>
    </g>
    <g id="g5779"  gorn="0.14" stroke-width="0">
        <title id="title5781" >element:JP1</title>
        <g id="g5783"  gorn="0.14.1" stroke-width="0">
            <title id="title5785" >package:1X08</title>
            <line y1="36" style="stroke-linecap:round" id="line5787"  x2="48.599998" gorn="0.14.1.1" x1="45" stroke-width="0.57599998" stroke="#ffffff" y2="36"/>
            <line y1="36" style="stroke-linecap:round" id="line5789"  x2="50.400002" gorn="0.14.1.2" x1="48.599998" stroke-width="0.57599998" stroke="#ffffff" y2="37.799999"/>
            <line y1="41.400002" style="stroke-linecap:round" id="line5791"  x2="48.599998" gorn="0.14.1.3" x1="50.400002" stroke-width="0.57599998" stroke="#ffffff" y2="43.200001"/>
            <line y1="37.799999" style="stroke-linecap:round" id="line5793"  x2="37.799999" gorn="0.14.1.4" x1="36" stroke-width="0.57599998" stroke="#ffffff" y2="36"/>
            <line y1="36" style="stroke-linecap:round" id="line5795"  x2="41.400002" gorn="0.14.1.5" x1="37.799999" stroke-width="0.57599998" stroke="#ffffff" y2="36"/>
            <line y1="36" style="stroke-linecap:round" id="line5797"  x2="43.200001" gorn="0.14.1.6" x1="41.400002" stroke-width="0.57599998" stroke="#ffffff" y2="37.799999"/>
            <line y1="41.400002" style="stroke-linecap:round" id="line5799"  x2="41.400002" gorn="0.14.1.7" x1="43.200001" stroke-width="0.57599998" stroke="#ffffff" y2="43.200001"/>
            <line y1="43.200001" style="stroke-linecap:round" id="line5801"  x2="37.799999" gorn="0.14.1.8" x1="41.400002" stroke-width="0.57599998" stroke="#ffffff" y2="43.200001"/>
            <line y1="43.200001" style="stroke-linecap:round" id="line5803"  x2="36" gorn="0.14.1.9" x1="37.799999" stroke-width="0.57599998" stroke="#ffffff" y2="41.400002"/>
            <line y1="36" style="stroke-linecap:round" id="line5805"  x2="43.200001" gorn="0.14.1.10" x1="45" stroke-width="0.57599998" stroke="#ffffff" y2="37.799999"/>
            <line y1="41.400002" style="stroke-linecap:round" id="line5807"  x2="45" gorn="0.14.1.11" x1="43.200001" stroke-width="0.57599998" stroke="#ffffff" y2="43.200001"/>
            <line y1="43.200001" style="stroke-linecap:round" id="line5809"  x2="45" gorn="0.14.1.12" x1="48.599998" stroke-width="0.57599998" stroke="#ffffff" y2="43.200001"/>
            <line y1="36" style="stroke-linecap:round" id="line5811"  x2="27" gorn="0.14.1.13" x1="23.4" stroke-width="0.57599998" stroke="#ffffff" y2="36"/>
            <line y1="36" style="stroke-linecap:round" id="line5813"  x2="28.799999" gorn="0.14.1.14" x1="27" stroke-width="0.57599998" stroke="#ffffff" y2="37.799999"/>
            <line y1="41.400002" style="stroke-linecap:round" id="line5815"  x2="27" gorn="0.14.1.15" x1="28.799999" stroke-width="0.57599998" stroke="#ffffff" y2="43.200001"/>
            <line y1="37.799999" style="stroke-linecap:round" id="line5817"  x2="30.6" gorn="0.14.1.16" x1="28.799999" stroke-width="0.57599998" stroke="#ffffff" y2="36"/>
            <line y1="36" style="stroke-linecap:round" id="line5819"  x2="34.200001" gorn="0.14.1.17" x1="30.6" stroke-width="0.57599998" stroke="#ffffff" y2="36"/>
            <line y1="36" style="stroke-linecap:round" id="line5821"  x2="36" gorn="0.14.1.18" x1="34.200001" stroke-width="0.57599998" stroke="#ffffff" y2="37.799999"/>
            <line y1="41.400002" style="stroke-linecap:round" id="line5823"  x2="34.200001" gorn="0.14.1.19" x1="36" stroke-width="0.57599998" stroke="#ffffff" y2="43.200001"/>
            <line y1="43.200001" style="stroke-linecap:round" id="line5825"  x2="30.6" gorn="0.14.1.20" x1="34.200001" stroke-width="0.57599998" stroke="#ffffff" y2="43.200001"/>
            <line y1="43.200001" style="stroke-linecap:round" id="line5827"  x2="28.799999" gorn="0.14.1.21" x1="30.6" stroke-width="0.57599998" stroke="#ffffff" y2="41.400002"/>
            <line y1="37.799999" style="stroke-linecap:round" id="line5829"  x2="16.200001" gorn="0.14.1.22" x1="14.4" stroke-width="0.57599998" stroke="#ffffff" y2="36"/>
            <line y1="36" style="stroke-linecap:round" id="line5831"  x2="19.799999" gorn="0.14.1.23" x1="16.200001" stroke-width="0.57599998" stroke="#ffffff" y2="36"/>
            <line y1="36" style="stroke-linecap:round" id="line5833"  x2="21.6" gorn="0.14.1.24" x1="19.799999" stroke-width="0.57599998" stroke="#ffffff" y2="37.799999"/>
            <line y1="41.400002" style="stroke-linecap:round" id="line5835"  x2="19.799999" gorn="0.14.1.25" x1="21.6" stroke-width="0.57599998" stroke="#ffffff" y2="43.200001"/>
            <line y1="43.200001" style="stroke-linecap:round" id="line5837"  x2="16.200001" gorn="0.14.1.26" x1="19.799999" stroke-width="0.57599998" stroke="#ffffff" y2="43.200001"/>
            <line y1="43.200001" style="stroke-linecap:round" id="line5839"  x2="14.4" gorn="0.14.1.27" x1="16.200001" stroke-width="0.57599998" stroke="#ffffff" y2="41.400002"/>
            <line y1="36" style="stroke-linecap:round" id="line5841"  x2="21.6" gorn="0.14.1.28" x1="23.4" stroke-width="0.57599998" stroke="#ffffff" y2="37.799999"/>
            <line y1="41.400002" style="stroke-linecap:round" id="line5843"  x2="23.4" gorn="0.14.1.29" x1="21.6" stroke-width="0.57599998" stroke="#ffffff" y2="43.200001"/>
            <line y1="43.200001" style="stroke-linecap:round" id="line5845"  x2="23.4" gorn="0.14.1.30" x1="27" stroke-width="0.57599998" stroke="#ffffff" y2="43.200001"/>
            <line y1="36" style="stroke-linecap:round" id="line5847"  x2="5.4000001" gorn="0.14.1.31" x1="1.8" stroke-width="0.57599998" stroke="#ffffff" y2="36"/>
            <line y1="36" style="stroke-linecap:round" id="line5849"  x2="7.1999998" gorn="0.14.1.32" x1="5.4000001" stroke-width="0.57599998" stroke="#ffffff" y2="37.799999"/>
            <line y1="41.400002" style="stroke-linecap:round" id="line5851"  x2="5.4000001" gorn="0.14.1.33" x1="7.1999998" stroke-width="0.57599998" stroke="#ffffff" y2="43.200001"/>
            <line y1="37.799999" style="stroke-linecap:round" id="line5853"  x2="9" gorn="0.14.1.34" x1="7.1999998" stroke-width="0.57599998" stroke="#ffffff" y2="36"/>
            <line y1="36" style="stroke-linecap:round" id="line5855"  x2="12.6" gorn="0.14.1.35" x1="9" stroke-width="0.57599998" stroke="#ffffff" y2="36"/>
            <line y1="36" style="stroke-linecap:round" id="line5857"  x2="14.4" gorn="0.14.1.36" x1="12.6" stroke-width="0.57599998" stroke="#ffffff" y2="37.799999"/>
            <line y1="41.400002" style="stroke-linecap:round" id="line5859"  x2="12.6" gorn="0.14.1.37" x1="14.4" stroke-width="0.57599998" stroke="#ffffff" y2="43.200001"/>
            <line y1="43.200001" style="stroke-linecap:round" id="line5861"  x2="9" gorn="0.14.1.38" x1="12.6" stroke-width="0.57599998" stroke="#ffffff" y2="43.200001"/>
            <line y1="43.200001" style="stroke-linecap:round" id="line5863"  x2="7.1999998" gorn="0.14.1.39" x1="9" stroke-width="0.57599998" stroke="#ffffff" y2="41.400002"/>
            <line y1="37.799999" style="stroke-linecap:round" id="line5865"  x2="0" gorn="0.14.1.40" x1="0" stroke-width="0.57599998" stroke="#ffffff" y2="41.400002"/>
            <line y1="36" style="stroke-linecap:round" id="line5867"  x2="0" gorn="0.14.1.41" x1="1.8" stroke-width="0.57599998" stroke="#ffffff" y2="37.799999"/>
            <line y1="41.400002" style="stroke-linecap:round" id="line5869"  x2="1.8" gorn="0.14.1.42" x1="0" stroke-width="0.57599998" stroke="#ffffff" y2="43.200001"/>
            <line y1="43.200001" style="stroke-linecap:round" id="line5871"  x2="1.8" gorn="0.14.1.43" x1="5.4000001" stroke-width="0.57599998" stroke="#ffffff" y2="43.200001"/>
            <line y1="36" style="stroke-linecap:round" id="line5873"  x2="55.799999" gorn="0.14.1.44" x1="52.200001" stroke-width="0.57599998" stroke="#ffffff" y2="36"/>
            <line y1="36" style="stroke-linecap:round" id="line5875"  x2="57.599998" gorn="0.14.1.45" x1="55.799999" stroke-width="0.57599998" stroke="#ffffff" y2="37.799999"/>
            <line y1="37.799999" style="stroke-linecap:round" id="line5877"  x2="57.599998" gorn="0.14.1.46" x1="57.599998" stroke-width="0.57599998" stroke="#ffffff" y2="41.400002"/>
            <line y1="41.400002" style="stroke-linecap:round" id="line5879"  x2="55.799999" gorn="0.14.1.47" x1="57.599998" stroke-width="0.57599998" stroke="#ffffff" y2="43.200001"/>
            <line y1="36" style="stroke-linecap:round" id="line5881"  x2="50.400002" gorn="0.14.1.48" x1="52.200001" stroke-width="0.57599998" stroke="#ffffff" y2="37.799999"/>
            <line y1="41.400002" style="stroke-linecap:round" id="line5883"  x2="52.200001" gorn="0.14.1.49" x1="50.400002" stroke-width="0.57599998" stroke="#ffffff" y2="43.200001"/>
            <line y1="43.200001" style="stroke-linecap:round" id="line5885"  x2="52.200001" gorn="0.14.1.50" x1="55.799999" stroke-width="0.57599998" stroke="#ffffff" y2="43.200001"/>
        </g>
    </g>
    <g id="g5887"  gorn="0.15" stroke-width="0">
        <title id="title5889" >element:JP2</title>
        <g id="g5891"  gorn="0.15.1" stroke-width="0">
            <title id="title5893" >package:STAND-OFF</title>
        </g>
    </g>
    <g id="g5895"  gorn="0.16" stroke-width="0">
        <title id="title5897" >element:JP3</title>
        <g id="g5899"  gorn="0.16.1" stroke-width="0">
            <title id="title5901" >package:STAND-OFF</title>
        </g>
    </g>
    <g id="g5903"  gorn="0.17" stroke-width="0">
        <title id="title5905" >element:U$2</title>
        <g id="g5907"  gorn="0.17.1" stroke-width="0">
            <title id="title5909" >package:SFE-NEW-WEBLOGO</title>
        </g>
    </g>
    <circle id="connector6pin" cx="3.5999999"  fill="none" r="2.052" gorn="0.18" d="m 5.652,39.599998 c 0,1.133289 -0.9187118,2.052001 -2.0520001,2.052001 -1.1332883,0 -2.052,-0.918712 -2.052,-2.052001 0,-1.133288 0.9187117,-2.052 2.052,-2.052 1.1332883,0 2.0520001,0.918712 2.0520001,2.052 z" cy="39.599998" connectorname="GND" stroke-width="1.22399998" stroke="#9a916c"/>
    <rect id="rect5934" width="4.1040001" x="1.548"  fill="none" y="37.548" height="4.1040001" gorn="0.19" stroke-width="1.22399998" stroke="#9a916c"/>
    <circle id="connector7pin" cx="10.8"  fill="none" r="2.052" gorn="0.20" d="m 12.852,39.599998 c 0,1.133289 -0.918711,2.052001 -2.052,2.052001 -1.1332881,0 -2.0519999,-0.918712 -2.0519999,-2.052001 0,-1.133288 0.9187118,-2.052 2.0519999,-2.052 1.133289,0 2.052,0.918712 2.052,2.052 z" cy="39.599998" connectorname="VCC" stroke-width="1.22399998" stroke="#9a916c"/>
    <circle id="connector8pin" cx="18"  fill="none" r="2.052" gorn="0.21" d="m 20.052,39.599998 c 0,1.133289 -0.918712,2.052001 -2.052,2.052001 -1.133288,0 -2.052,-0.918712 -2.052,-2.052001 0,-1.133288 0.918712,-2.052 2.052,-2.052 1.133288,0 2.052,0.918712 2.052,2.052 z" cy="39.599998" connectorname="CS" stroke-width="1.22399998" stroke="#9a916c"/>
    <circle id="connector9pin" cx="25.200001"  fill="none" r="2.052" gorn="0.22" d="m 27.252001,39.599998 c 0,1.133289 -0.918712,2.052001 -2.052,2.052001 -1.133289,0 -2.052,-0.918712 -2.052,-2.052001 0,-1.133288 0.918711,-2.052 2.052,-2.052 1.133288,0 2.052,0.918712 2.052,2.052 z" cy="39.599998" connectorname="INT1" stroke-width="1.22399998" stroke="#9a916c"/>
    <circle id="connector10pin" cx="32.400002"  fill="none" r="2.052" gorn="0.23" d="m 34.452002,39.599998 c 0,1.133289 -0.918712,2.052001 -2.052,2.052001 -1.133289,0 -2.052001,-0.918712 -2.052001,-2.052001 0,-1.133288 0.918712,-2.052 2.052001,-2.052 1.133288,0 2.052,0.918712 2.052,2.052 z" cy="39.599998" connectorname="INT2" stroke-width="1.22399998" stroke="#9a916c"/>
    <circle id="connector11pin" cx="39.599998"  fill="none" r="2.052" gorn="0.24" d="m 41.651999,39.599998 c 0,1.133289 -0.918712,2.052001 -2.052001,2.052001 -1.133288,0 -2.052,-0.918712 -2.052,-2.052001 0,-1.133288 0.918712,-2.052 2.052,-2.052 1.133289,0 2.052001,0.918712 2.052001,2.052 z" cy="39.599998" connectorname="SDO" stroke-width="1.22399998" stroke="#9a916c"/>
    <circle id="connector12pin" cx="46.799999"  fill="none" r="2.052" gorn="0.25" d="m 48.851999,39.599998 c 0,1.133289 -0.918711,2.052001 -2.052,2.052001 -1.133288,0 -2.052,-0.918712 -2.052,-2.052001 0,-1.133288 0.918712,-2.052 2.052,-2.052 1.133289,0 2.052,0.918712 2.052,2.052 z" cy="39.599998" connectorname="SDA" stroke-width="1.22399998" stroke="#9a916c"/>
    <circle id="connector13pin" cx="54"  fill="none" r="2.052" gorn="0.26" d="m 56.052,39.599998 c 0,1.133289 -0.918712,2.052001 -2.052,2.052001 -1.133288,0 -2.052,-0.918712 -2.052,-2.052001 0,-1.133288 0.918712,-2.052 2.052,-2.052 1.133288,0 2.052,0.918712 2.052,2.052 z" cy="39.599998" connectorname="SCL" stroke-width="1.22399998" stroke="#9a916c"/>
</svg>
